<?xml version="1.0" encoding="utf-8"?><svg width="16" height="16" fill="none" xmlns="http://www.w3.org/2000/svg" viewBox="0 0 16 16"><path d="M10.16 1.333H7.564c-1.176 0-2.108 0-2.837.099-.75.101-1.358.314-1.836.795-.48.48-.692 1.09-.793 1.844C2 4.803 2 5.738 2 6.919v3.892a2.41 2.41 0 0 0 1.485 2.228c-.045-.607-.045-1.457-.045-2.165v-3.34c0-.854 0-1.59.079-2.18.084-.632.275-1.237.764-1.728.49-.492 1.093-.683 1.722-.768.587-.079 1.32-.079 2.172-.079h2.046c.851 0 1.583 0 2.17.079a2.4 2.4 0 0 0-2.233-1.525Z" fill="#000"/><path d="M4.4 7.598c0-1.818 0-2.726.563-3.291.562-.565 1.466-.565 3.277-.565h1.92c1.81 0 2.715 0 3.278.565.563.565.562 1.473.562 3.29v3.214c0 1.817 0 2.726-.562 3.29-.563.565-1.468.565-3.278.565H8.24c-1.81 0-2.715 0-3.277-.565-.563-.564-.563-1.473-.563-3.29V7.598Z" fill="#000"/></svg>