<?xml version="1.0" encoding="utf-8"?><svg width="24" height="19" fill="none" xmlns="http://www.w3.org/2000/svg" viewBox="0 0 24 19"><g clip-path="url(#da)"><path d="M20.33 1.585A19.292 19.292 0 0 0 15.38 0c-.213.393-.463.92-.634 1.341a17.855 17.855 0 0 0-5.488 0C9.086.921 8.831.393 8.616 0 6.902.302 5.236.836 3.66 1.589.527 6.41-.322 11.114.102 15.749c2.079 1.581 4.093 2.541 6.073 3.17.492-.69.927-1.42 1.3-2.182a12.698 12.698 0 0 1-2.048-1.015c.172-.13.34-.264.502-.404 3.95 1.88 8.24 1.88 12.142 0 .164.139.331.274.502.404-.653.4-1.34.741-2.052 1.017.376.766.81 1.496 1.3 2.182 1.983-.629 3.999-1.589 6.077-3.171.498-5.375-.851-10.034-3.568-14.165ZM8.013 12.898c-1.185 0-2.157-1.127-2.157-2.5 0-1.372.951-2.5 2.157-2.5 1.207 0 2.179 1.126 2.158 2.5.002 1.373-.951 2.5-2.158 2.5Zm7.974 0c-1.186 0-2.158-1.127-2.158-2.5 0-1.372.952-2.5 2.158-2.5s2.178 1.126 2.157 2.5c0 1.373-.951 2.5-2.157 2.5Z" fill="#5865F2"/></g><defs><clipPath id="da"><path fill="#fff" d="M0 0h24v19H0z"/></clipPath></defs></svg>