<?xml version="1.0" encoding="utf-8"?><svg width="24" height="24" fill="none" xmlns="http://www.w3.org/2000/svg" viewBox="0 0 24 24"><circle cx="12" cy="12" r="12" fill="currentColor"/><path d="M16.846 7.831A11.88 11.88 0 0 0 13.999 7a.069.069 0 0 0-.047.019c-.12.206-.26.475-.353.68-1.06-.149-2.14-.149-3.2 0a6.1 6.1 0 0 0-.36-.68C10.032 7.006 10.012 7 9.992 7c-1 .162-1.953.444-2.847.831-.006 0-.013.006-.02.013-1.813 2.543-2.313 5.017-2.066 7.466 0 .013.006.025.02.032a11.9 11.9 0 0 0 3.493 1.655c.02.007.04 0 .047-.012.267-.344.507-.706.713-1.087.014-.025 0-.05-.026-.056-.38-.138-.74-.3-1.094-.488-.026-.012-.026-.05-.006-.069.073-.05.146-.106.22-.156a.043.043 0 0 1 .046-.006c2.294.98 4.767.98 7.034 0 .013-.006.033-.006.046.006.074.056.147.106.22.163.027.018.027.056-.006.068-.347.194-.714.35-1.094.488-.026.006-.033.037-.026.056.213.381.453.744.713 1.087.02.006.04.013.06.006 1.147-.33 2.3-.83 3.5-1.655a.034.034 0 0 0 .02-.032c.294-2.83-.486-5.286-2.067-7.466-.006-.007-.013-.013-.026-.013Zm-7.167 5.986c-.687 0-1.26-.594-1.26-1.325 0-.73.56-1.324 1.26-1.324.707 0 1.267.6 1.26 1.324 0 .731-.56 1.325-1.26 1.325Zm4.647 0c-.687 0-1.26-.594-1.26-1.325 0-.73.56-1.324 1.26-1.324.706 0 1.266.6 1.26 1.324 0 .731-.554 1.325-1.26 1.325Z" fill="#fff"/></svg>