<?xml version="1.0" encoding="utf-8"?><svg width="32" height="32" fill="none" xmlns="http://www.w3.org/2000/svg" viewBox="0 0 32 32"><path d="M4 24a2.667 2.667 0 1 0 5.333 0A2.667 2.667 0 0 0 4 24ZM22.667 8A2.667 2.667 0 1 0 28 8a2.667 2.667 0 0 0-5.333 0Z" stroke="#000" stroke-width="1.333" stroke-linecap="round" stroke-linejoin="round"/><path d="M25.333 10.667v6.666A6.667 6.667 0 0 1 18.667 24h-4m0 0 4-4m-4 4 4 4M6.667 21.333v-6.666A6.667 6.667 0 0 1 13.333 8h4m0 0-4-4m4 4-4 4" stroke="#000" stroke-width="1.333" stroke-linecap="round" stroke-linejoin="round"/></svg>