<?xml version="1.0" encoding="utf-8"?><svg width="32" height="32" fill="none" xmlns="http://www.w3.org/2000/svg" viewBox="0 0 32 32"><path d="M10.667 17.333v-10a2 2 0 0 1 4 0V16M14.667 7.333V4.667a2 2 0 0 1 4 0V16M18.667 7.333a2 2 0 0 1 4 0V16" stroke="#000" stroke-width="1.333" stroke-linecap="round" stroke-linejoin="round"/><path d="M22.667 10a2 2 0 1 1 4 0v11.333a8 8 0 0 1-8 8H16h.277a8 8 0 0 1-6.682-3.6 89.411 89.411 0 0 1-.262-.4c-.416-.638-1.876-3.184-4.381-7.637A2 2 0 0 1 5.667 15a2.49 2.49 0 0 1 3.04.373l1.96 1.96" stroke="#000" stroke-width="1.333" stroke-linecap="round" stroke-linejoin="round"/></svg>