<?xml version="1.0" encoding="utf-8"?><svg width="20" height="16" fill="none" xmlns="http://www.w3.org/2000/svg" viewBox="0 0 20 16"><path d="M6.4 7.2A1.001 1.001 0 0 0 5 7c-.44.331-.531.96-.2 1.4l1.19 1.588a.5.5 0 0 1-.046.653l-.4.4a.497.497 0 0 1-.738-.035L2 7.637V3a.999.999 0 1 0-2 0v6.825c0 .34.116.672.328.938l3.253 4.196c.156.204.263.435.325.678a.49.49 0 0 0 .478.363H8.5c.275 0 .5-.225.5-.5V12c0-.866-.281-1.706-.8-2.4L6.4 7.2ZM19 2c-.553 0-1 .447-1 1v4.638l-2.806 3.368a.502.502 0 0 1-.738.035l-.4-.4a.5.5 0 0 1-.047-.653L15.2 8.4c.331-.44.24-1.069-.2-1.4a1.001 1.001 0 0 0-1.4.2l-1.8 2.4A4.006 4.006 0 0 0 11 12v3.5c0 .275.225.5.5.5h4.116a.492.492 0 0 0 .478-.363c.062-.243.168-.475.325-.678l3.253-4.197c.212-.265.328-.596.328-.937V3c0-.553-.447-1-1-1Z" fill="#01FF87"/></svg>