<?xml version="1.0" encoding="utf-8"?><svg width="32" height="32" fill="none" xmlns="http://www.w3.org/2000/svg" viewBox="0 0 32 32"><path d="m26 16.763-10 9.904-10-9.904a6.668 6.668 0 1 1 10-8.755 6.667 6.667 0 1 1 10 8.763" stroke="#000" stroke-width="1.333" stroke-linecap="round" stroke-linejoin="round"/><path d="m16 8-4.39 4.39a1.333 1.333 0 0 0 0 1.886l.723.724c.92.92 2.414.92 3.334 0L17 13.667a4.243 4.243 0 0 1 6 0l3 3M16.667 20.667l2.666 2.666M20 17.333 22.667 20" stroke="#000" stroke-width="1.333" stroke-linecap="round" stroke-linejoin="round"/></svg>