<?xml version="1.0" encoding="utf-8"?><svg width="32" height="32" fill="none" xmlns="http://www.w3.org/2000/svg" viewBox="0 0 32 32"><path d="M20 16h5.453C26.86 16 28 17.193 28 18.667c0 1.473-1.14 2.666-2.547 2.666C26.86 21.333 28 22.527 28 24c0 1.473-1.14 2.667-2.547 2.667H20M21.333 21.333h5.334M21.333 14.667V28 16M25.333 14.667V16M25.333 26.667V28M4 6.667a2.667 2.667 0 1 0 5.333 0 2.667 2.667 0 0 0-5.333 0ZM20 6.667a2.667 2.667 0 1 0 5.334 0 2.667 2.667 0 0 0-5.334 0ZM9.333 6.667H20" stroke="#000" stroke-width="1.333" stroke-linecap="round" stroke-linejoin="round"/><path d="M9.333 6.667v10.666a4 4 0 0 0 4 4h1.334" stroke="#000" stroke-width="1.333" stroke-linecap="round" stroke-linejoin="round"/></svg>