<?xml version="1.0" encoding="utf-8"?><svg width="49" height="49" fill="none" xmlns="http://www.w3.org/2000/svg" viewBox="0 0 49 49"><path fill-rule="evenodd" clip-rule="evenodd" d="M0 24.375C0 10.912 10.912 0 24.375 0 37.837 0 48.75 10.912 48.75 24.375c0 13.462-10.913 24.375-24.375 24.375C10.912 48.75 0 37.837 0 24.375Zm28.445-9.793c-2.225-1.942-5.915-1.942-8.137 0a1.875 1.875 0 0 1-2.47-2.822c3.634-3.18 9.44-3.18 13.075 0 3.782 3.31 3.782 8.795 0 12.105a9.377 9.377 0 0 1-2.093 1.38c-1.69.82-2.57 1.935-2.57 2.88V30a1.875 1.875 0 1 1-3.75 0v-1.875c0-3.198 2.65-5.267 4.688-6.255a5.7 5.7 0 0 0 1.257-.828c2.075-1.817 2.075-4.642 0-6.46Zm-4.07 24.793a1.875 1.875 0 1 0 0-3.75 1.875 1.875 0 0 0 0 3.75Z" fill="currentColor"/></svg>