<?xml version="1.0" encoding="utf-8"?><svg width="200" height="42" fill="none" xmlns="http://www.w3.org/2000/svg" viewBox="0 0 200 42"><path d="M38.017 19.627c.076.684.114 1.273.114 1.767 0 5.477-1.77 10.117-5.307 13.92-3.537 3.802-7.973 5.704-13.307 5.704-5.334 0-9.968-1.92-13.788-5.761C1.91 31.416 0 26.795 0 21.394S1.91 11.372 5.73 7.53c3.82-3.84 8.415-5.76 13.787-5.76 3.745 0 7.075.96 9.988 2.88 2.913 1.92 5.202 4.534 6.867 7.843l-5.505 1.598a12.75 12.75 0 0 0-4.625-4.993c-1.987-1.238-4.228-1.856-6.725-1.856-3.898 0-7.216 1.38-9.96 4.139-2.742 2.758-4.113 6.095-4.113 10.011 0 3.916 1.371 7.255 4.114 10.014 2.742 2.76 6.061 4.138 9.959 4.138 3.367 0 6.185-.98 8.456-2.939 2.27-1.96 3.726-4.48 4.37-7.563H18.155V19.57l19.862.057ZM60.486 10.45s-10.942 5.325-10.552 17.925v12.2H44.49V16.936s13.462-6.487 15.996-6.487ZM86.27 13.213h5.445v27.362H86.27v-4.002c-2.272 2.963-5.302 4.444-9.088 4.444-3.787 0-7.19-1.367-9.764-4.102-2.573-2.734-3.86-6.075-3.86-10.021 0-3.946 1.287-7.286 3.86-10.02 2.574-2.735 5.828-4.103 9.764-4.103 3.935 0 6.816 1.48 9.088 4.443v-4.001Zm-14.74 19.8c1.686 1.688 3.721 2.532 6.107 2.532s4.421-.845 6.106-2.533c1.685-1.688 2.528-3.727 2.528-6.118 0-2.391-.843-4.429-2.528-6.118-1.685-1.688-3.72-2.533-6.106-2.533-2.385 0-4.421.845-6.106 2.533-1.685 1.689-2.527 3.728-2.527 6.118s.842 4.43 2.527 6.118ZM113.392 12.77c3.292 0 5.875 1.026 7.748 3.077 1.873 2.052 2.81 5.052 2.81 9.003v15.725h-5.444V25.307c0-2.316-.465-4.073-1.393-5.27-.928-1.195-2.51-1.794-4.744-1.794-1.819 0-3.524.674-5.115 2.023-1.592 1.348-2.386 3.104-2.386 5.27v15.039h-5.444V13.213h5.444v3.2c2.12-2.428 4.961-3.643 8.523-3.643h.001ZM132.622 10.132v8.289h11.051c0-1.423-1.25-2.598-2.763-2.66l-2.565-.062v-4.02l-5.723-1.547ZM139.086 34.807c-.718-.532-1.077-2.108-1.077-4.728v-7.611h-5.444v9.149c0 6.267 2.287 9.4 6.862 9.4 1.588 0 2.929-.266 4.026-.798v-5.526c-1.815.912-3.27.95-4.367.114ZM156.402 9.249c-.799.8-1.765 1.2-2.899 1.2-1.134 0-2.101-.4-2.899-1.2-.799-.8-1.198-1.774-1.198-2.918 0-1.144.399-2.116 1.198-2.917.798-.8 1.765-1.201 2.899-1.201 1.134 0 2.1.4 2.899 1.201.798.8 1.198 1.773 1.198 2.917s-.4 2.117-1.198 2.918Zm-106.41 0c-.8.8-1.765 1.2-2.9 1.2-1.134 0-2.1-.4-2.899-1.2-.799-.8-1.197-1.774-1.197-2.918 0-1.144.398-2.116 1.197-2.917.799-.8 1.765-1.201 2.9-1.201 1.134 0 2.1.4 2.898 1.201.799.8 1.198 1.773 1.198 2.917s-.4 2.117-1.198 2.918ZM150.78 40.575V18.414c.181-2.97-1.958-4.998-1.958-4.998l7.402 1.664v25.495h-5.444ZM184.733 21.364l-.009-.01L200 5.998a24.457 24.457 0 0 0-4.013-4.396L180.531 17.14l-.01.009-15.562-15.643a24.465 24.465 0 0 0-4.039 4.37l15.408 15.489-15.25 15.33a24.4 24.4 0 0 0 4.085 4.323l15.358-15.438 15.263 15.343a24.438 24.438 0 0 0 4.06-4.35l-15.119-15.199.009-.009h-.001ZM58.577 8.475C66.76 5.594 75.304 3.793 83.89 2.642 98.08.8 112.64 1.007 126.62 4.215c1.655.38 3.413.825 5.041 1.305 1.13.327 2.613.783 3.727 1.162 1.65.535 3.271 1.156 4.883 1.793l-.017.046c-16.264-6.084-33.945-7.504-51.147-5.995a148.777 148.777 0 0 0-30.53 5.95v-.001Z" fill="currentColor"/><path d="m101.89 1.17-.83-.835a.47.47 0 0 0-.667 0l-.83.834a.476.476 0 0 0 0 .671l.83.834a.47.47 0 0 0 .667 0l.83-.834a.476.476 0 0 0 0-.67ZM85.245 2.127l-.83-.834a.47.47 0 0 0-.667 0l-.83.834a.476.476 0 0 0 0 .671l.83.834a.47.47 0 0 0 .668 0l.83-.834a.476.476 0 0 0 0-.67ZM117.58 2.127l-.83-.835a.47.47 0 0 0-.667 0l-.83.835a.476.476 0 0 0 0 .67l.83.834a.47.47 0 0 0 .667 0l.83-.834a.476.476 0 0 0 0-.67ZM132.112 4.874l-.83-.835a.47.47 0 0 0-.667 0l-.83.835a.476.476 0 0 0 0 .67l.83.834a.47.47 0 0 0 .667 0l.83-.834a.476.476 0 0 0 0-.67ZM71.47 4.875l-.83-.835a.47.47 0 0 0-.668 0l-.83.835a.476.476 0 0 0 0 .67l.83.834a.47.47 0 0 0 .668 0l.83-.834a.476.476 0 0 0 0-.67Z" fill="currentColor"/></svg>