<?xml version="1.0" encoding="utf-8"?><svg width="32" height="32" fill="none" xmlns="http://www.w3.org/2000/svg" viewBox="0 0 32 32"><path d="M12 6.667H9.333a2.667 2.667 0 0 0-2.666 2.666v16A2.667 2.667 0 0 0 9.333 28h13.334a2.667 2.667 0 0 0 2.666-2.667v-16a2.667 2.667 0 0 0-2.666-2.666H20" stroke="#000" stroke-width="1.333" stroke-linecap="round" stroke-linejoin="round"/><path d="M12 6.667A2.667 2.667 0 0 1 14.667 4h2.666a2.667 2.667 0 1 1 0 5.333h-2.666A2.667 2.667 0 0 1 12 6.667ZM18.667 14.667h-3.334a2 2 0 0 0 0 4h1.334a2 2 0 0 1 0 4h-3.334M16 22.667V24m0-10.667v1.334" stroke="#000" stroke-width="1.333" stroke-linecap="round" stroke-linejoin="round"/></svg>