<?xml version="1.0" encoding="utf-8"?><svg width="160" height="36" fill="none" xmlns="http://www.w3.org/2000/svg" viewBox="0 0 160 36"><path fill-rule="evenodd" clip-rule="evenodd" d="M.62.785c3.992 4.9 8.375 11.055 9.084 12.05l.082.114c.378.529.69.921.927 1.22.526.662.682.858.368 1.038a1.513 1.513 0 0 1-.775.194c-.295 0-.627-.144-.869-.376-.17-.164-1.34-1.881-2.933-4.38-1.218-1.911-2.238-3.497-2.266-3.524-.064-.061-.063-.06 2.142 3.93 1.385 2.505 2.332 4.356 2.332 4.475 0 .24-.065.367-.359.699-.49.553-.709 1.174-.867 2.459-.177 1.44-.676 2.458-2.057 4.2-.809 1.02-.94 1.206-1.145 1.617-.257.518-.328.808-.356 1.461-.03.691.029 1.138.237 1.798.183.578.374.96.862 1.724.42.66.663 1.15.663 1.34 0 .153.029.153.68.005 1.562-.357 2.829-.983 3.542-1.752.44-.475.544-.738.548-1.39.002-.425-.013-.515-.127-.76-.185-.399-.523-.73-1.267-1.245-.975-.674-1.391-1.216-1.506-1.962-.095-.613.015-1.045.554-2.188.558-1.183.697-1.687.79-2.88.06-.77.144-1.074.363-1.318.229-.254.434-.34 1-.418.92-.128 1.507-.369 1.99-.818.418-.39.593-.765.62-1.33l.02-.43-.234-.275C11.817 13.065.053 0 0 0c-.01 0 .268.353.62.785Zm5.545 25.96a.763.763 0 0 0-.23-1c-.303-.203-.773-.107-.773.158 0 .08.044.14.144.192.168.087.18.185.048.386-.134.203-.123.382.03.503.248.196.598.088.781-.24Zm5.76-18.69c-.377-.06-.393-.067-.215-.095.34-.053 1.145.02 1.7.153 1.293.31 2.47 1.107 3.727 2.522l.334.376.477-.078c2.012-.327 4.06-.067 5.771.733.471.22 1.214.658 1.307.77.03.036.084.267.12.513.127.853.064 1.506-.194 1.994-.14.266-.148.35-.054.577a.55.55 0 0 0 .493.315c.426 0 .884-.696 1.096-1.663l.084-.385.167.191c.916 1.05 1.635 2.48 1.759 3.499l.032.265-.154-.241c-.265-.415-.531-.698-.872-.926-.614-.411-1.264-.551-2.985-.643-1.554-.083-2.433-.217-3.305-.505-1.484-.489-2.232-1.14-3.995-3.478-.783-1.039-1.267-1.614-1.748-2.076-1.094-1.052-2.168-1.603-3.544-1.819Zm13.451 2.318c.04-.696.133-1.155.32-1.574.074-.166.144-.302.155-.302.01 0-.022.123-.072.272-.136.407-.159.963-.065 1.61.12.822.187.94 1.046 1.828.403.416.871.941 1.041 1.167l.309.41-.309-.293c-.378-.358-1.246-1.057-1.438-1.157-.128-.067-.148-.066-.227.014-.073.074-.088.184-.099.707-.015.815-.125 1.338-.39 1.86-.144.283-.166.223-.037-.096.097-.239.107-.343.107-1.132-.002-1.585-.188-1.965-1.28-2.618a11.895 11.895 0 0 0-1.011-.53c-.28-.126-.503-.236-.495-.244.031-.031 1.095.283 1.523.45.637.247.743.28.82.25.052-.02.077-.173.102-.622ZM11.521 9.157c-.103 1.223.372 2.86 1.138 3.927.595.827 1.516 1.47 2.196 1.532.446.04.58-.1.378-.398-.28-.413-.624-1.049-.715-1.321-.056-.17-.18-.67-.273-1.11-.32-1.508-.634-2.095-1.36-2.541a4.35 4.35 0 0 0-1.158-.436l-.174-.032-.032.379Zm12.925 11.87c-3.583-1.459-4.845-2.725-4.845-4.861 0-.315.01-.572.024-.572.013 0 .152.104.308.23.727.59 1.54.842 3.793 1.174 1.325.195 2.07.353 2.759.584 2.187.733 3.54 2.221 3.863 4.249.093.589.038 1.693-.114 2.275-.12.46-.486 1.289-.583 1.32-.027.01-.053-.095-.06-.237-.037-.761-.418-1.502-1.056-2.057-.727-.631-1.703-1.134-4.089-2.105Zm-2.688-.16c.05.15.128.496.173.766.287 1.727-.61 3.122-2.354 3.663-.185.057-.912.201-1.616.32-1.426.24-2.062.41-2.701.72-.454.222-1.002.552-.97.585.01.01.114-.014.23-.055.806-.287 1.703-.435 3.066-.506a26.843 26.843 0 0 0 1.368-.1c1.214-.155 2.055-.529 2.71-1.202.364-.375.581-.724.756-1.216.111-.313.126-.429.127-.982 0-.564-.013-.667-.133-1.014-.157-.454-.343-.796-.578-1.063l-.17-.192.092.275Zm1.815 3.715c-.476-1.035-.585-2.034-.324-2.965.028-.1.072-.181.1-.181.026 0 .139.061.25.136.218.15.658.401 1.83 1.047 1.463.806 2.297 1.43 2.864 2.144.497.625.804 1.336.952 2.204.084.492.035 1.674-.09 2.17-.393 1.56-1.307 2.785-2.61 3.5-.192.105-.363.191-.382.192-.018 0 .051-.179.155-.398.438-.927.488-1.828.157-2.832-.203-.614-.617-1.364-1.453-2.632-.972-1.473-1.21-1.865-1.449-2.385Zm-8.967 3.394c-1.507.248-3.161 1.054-4.491 2.19l-.396.337.348.055c1.816.287 2.304.541 3.564 1.853.724.754.969.922 1.57 1.078.883.227 1.753-.191 2.052-.988.133-.355.115-.945-.038-1.24-.364-.705-1.424-.933-1.937-.417-.427.43-.303 1.078.229 1.189.121.026.118.02-.031-.048-.233-.106-.334-.254-.335-.488-.003-.55.62-.859 1.198-.595.424.194.592.447.592.89 0 .682-.574 1.196-1.242 1.112a1.82 1.82 0 0 1-1.028-.544c-.59-.674-.36-1.737.463-2.145.626-.31 1.459-.234 2.105.193.742.492 1.057.94 1.696 2.414.208.48.476 1.02.595 1.2.605.917 1.33 1.366 2.204 1.366.482 0 .845-.089 1.3-.319.34-.171.82-.496.785-.531-.01-.01-.15.034-.312.098-.954.376-1.924.35-2.487-.067-.355-.262-.64-.785-.788-1.438-.025-.113-.109-.613-.186-1.11-.196-1.262-.384-1.829-.822-2.48-.449-.665-1.311-1.224-2.275-1.474-.602-.155-1.684-.198-2.333-.09Zm-2.11-9.752c.13-.486.55-.95.982-1.084.276-.085.844-.03 1.111.107.518.266.894.873.813 1.31-.1.534-.956.962-1.941.969-.503.003-.689-.065-.881-.325-.119-.16-.164-.68-.085-.977Zm1.961-.787c.258.16.325.395.173.614-.105.15-.429.293-.665.293-.356 0-.744-.256-.744-.49 0-.47.744-.72 1.236-.417Zm77.203 1.345c-.804-2.675.522-4.894 3.349-5.607.81-.205 4.482-.113 5.111.128.231.089.332.427.334 1.124.002.548.061 1.214.133 1.48.108.403.045.482-.38.475-.384-.006-.616-.23-.94-.912-.517-1.088-1.144-1.435-2.605-1.439-1.865-.005-3.23 1.252-3.007 2.77.145.989 1.13 1.96 3.344 3.298 2.106 1.271 3.335 2.317 3.825 3.253 1.31 2.505.191 5.186-2.726 6.536-1.498.693-4.008.765-5.773.165l-1.13-.384V27.86c0-1.637.039-1.808.411-1.808.312 0 .447.206.556.852.273 1.608 1.493 2.583 3.23 2.583 1.703 0 2.893-.93 3.349-2.619.194-.719.16-.984-.225-1.777-.462-.952-1.256-1.583-3.955-3.141-1.498-.866-2.557-2.022-2.901-3.169Zm-52.908-4.54c-.369 0-.512-.12-.512-.429 0-.409.143-.43 3.03-.43 2.678 0 3.02.041 2.96.349-.04.192-.41.457-.824.59l-.753.243-.065 5.476c-.043 3.653.018 5.76.182 6.334.489 1.704 1.98 2.684 4.082 2.684 1.465 0 2.32-.343 3.395-1.36 1.155-1.094 1.34-2.134 1.336-7.537-.004-5.329-.096-5.768-1.24-5.879-.52-.05-.694-.172-.694-.483 0-.388.171-.416 2.583-.416 2.44 0 2.583.024 2.583.43 0 .264-.145.43-.377.432-.997.009-1.015.104-1.15 5.947-.138 6.069-.268 6.787-1.497 8.274-.354.428-1.2 1.051-1.877 1.384-1.106.541-1.458.603-3.387.6-1.778-.004-2.34-.09-3.229-.495-1.298-.592-2.142-1.357-2.764-2.508-.434-.803-.472-1.237-.572-6.678-.115-6.227-.171-6.527-1.21-6.527Zm20.143 0c-.492 0-.636-.096-.636-.429 0-.402.138-.428 2.207-.411l2.206.017 1.056 1.217c.58.67 2.472 2.763 4.204 4.653 1.732 1.89 3.72 4.088 4.418 4.885.698.797 1.356 1.45 1.46 1.45.108 0 .162-2.253.124-5.173l-.068-5.172-.604-.518c-.332-.285-.84-.518-1.13-.518-.385 0-.526-.117-.526-.436 0-.419.11-.433 2.96-.375 2.423.049 2.96.116 2.96.373 0 .182-.3.374-.72.46-.396.08-.832.258-.969.395-.177.176-.267 2.456-.31 7.86l-.062 7.613h-.624c-.537 0-1.177-.605-4.595-4.349-2.184-2.391-4.733-5.234-5.664-6.316-.932-1.082-1.767-1.976-1.856-1.986-.25-.028-.19 9.643.066 10.56.2.716.336.84 1.183 1.065.682.182.958.367.958.64 0 .352-.26.386-3.014.386-2.803 0-3.014-.028-3.014-.403 0-.274.203-.443.636-.53 1.315-.262 1.402-.678 1.476-7.04.04-3.563-.02-6.055-.16-6.578-.248-.917-.866-1.34-1.962-1.34Zm22.572 0c-.461 0-.605-.101-.605-.429 0-.41.144-.43 3.23-.43 3.084 0 3.228.02 3.228.43 0 .315-.144.43-.538.43-.296 0-.736.197-.978.438-.426.425-.437.637-.376 7.21.059 6.418.084 6.79.48 7.078.23.168.641.305.915.305.353 0 .497.123.497.43 0 .41-.144.428-3.229.428-3.012 0-3.229-.027-3.229-.401 0-.303.211-.436.853-.539 1.274-.203 1.339-.619 1.26-8.042-.064-5.944-.091-6.315-.486-6.603-.23-.167-.69-.304-1.022-.304Zm22.524 0c-.295 0-.519-.163-.589-.429-.108-.415-.006-.43 3.097-.43 3.065 0 3.208.02 3.208.43 0 .33-.143.43-.619.43-1.355 0-1.325.245.726 5.861 1.044 2.858 2.058 5.574 2.253 6.034l.354.837 1.644-4.38c1.935-5.155 2.187-6.109 1.858-7.05-.229-.655-1.12-1.302-1.792-1.302-.19 0-.334-.185-.334-.43 0-.41.144-.43 3.337-.43s3.337.02 3.337.43c0 .306-.144.43-.497.43-.905 0-1.304.481-1.174 1.417.133.962 3.836 11.31 3.991 11.156.253-.252 4.353-11.392 4.353-11.826 0-.52-.365-.747-1.202-.747-.377 0-.52-.119-.52-.43 0-.405.143-.43 2.583-.43 2.191 0 2.583.052 2.583.334 0 .184-.268.427-.596.54-.738.258-.924.55-1.849 2.923l-2.828 7.245c-1.148 2.944-2.137 5.48-2.197 5.637-.061.157-.417.285-.792.285h-.681l-1.546-4.026c-.851-2.214-1.856-4.837-2.233-5.83-.647-1.7-.701-1.773-.945-1.288-.142.284-1.163 2.912-2.27 5.84l-2.013 5.325-.751-.064-.751-.064-2.864-7.499c-1.6-4.19-3.072-7.72-3.335-7.998-.259-.275-.685-.5-.946-.5Zm43.042.092c-.036-.082-.036-.375-.036-.375s-.008-.105.036-.162c.044-.056.06-.058.218-.073h.002a60.927 60.927 0 0 1 3.016-.204h.005c1.071-.049 2.987-.114 4.304-.048 2.528.126 4.325 1.35 4.938 3.37.613 2.021.289 3.918-.546 5.126-.835 1.207-2.239 2.247-4.573 2.179-1.927-.056-2.443-.417-2.855-.705-.087-.061-.169-.12-.259-.17v2.577c.02 1.758.035 2.602.171 2.914.183.421.597.68 1.404.879 0 0 .365.085.459.177.094.091.094.294.094.294s.019.19-.056.286c-.076.097-.222.078-.222.078l-3.573-.03-2.154-.005s-.226.043-.311-.047c-.085-.092-.077-.282-.077-.282s.019-.204.118-.296c.099-.091.466-.194.466-.194.831-.233 1.192-.48 1.38-.945.151-.376.152-1.071.151-6.748-.002-5.384-.009-6.389-.133-6.677-.182-.428-.639-.541-1.29-.702-.129-.033-.266-.066-.409-.105 0 0-.232-.03-.268-.112Zm10.403 4.393c0 .883-.015 2.265-.954 3.148-.939.884-2.787 1.126-4.042.88a2.602 2.602 0 0 1-.796-.29l-.018-.009-.321-.169-.018-3.102c-.012-1.943.008-3.21.054-3.39.042-1.025 1.552-1.153 2.29-1.115 3.156 0 3.713 2.663 3.805 4.047Zm-20.315-5.223s-.154.06-.388.148l-.843.436-.607 1.517c-.334.834-.944 2.365-1.357 3.403a970.913 970.913 0 0 1-1.769 4.427c-.154.381-.617 1.542-1.031 2.58-.413 1.037-.826 2.024-.917 2.193l-.049.09c-.231.435-.632 1.19-1.341 1.305 0 0-.389.038-.534.18-.144.143-.13.26-.13.26v.18s.013.087.095.13c.082.044.192.046.192.046l2.593-.03h2.679s.19.023.263-.038c.073-.06.093-.15.093-.15v-.19s-.037-.205-.143-.285c-.106-.08-.504-.135-.504-.135-1.073-.141-1.257-.953-1.125-1.684.065-.358.496-1.686.982-3.022l.168-.462 2.807-.021c1.544-.012 2.878-.004 2.963.017.122.031.292.378.793 1.613.76 1.872.82 2.1.652 2.45l-.033.07c-.158.339-.464.997-1.235 1.064 0 0-.409.014-.511.137-.102.122-.08.263-.08.263v.188s.027.11.08.153c.052.044.141.032.141.032l2.549-.018h3.582s.141.015.179-.039c.038-.054.046-.118.046-.118v-.249s-.016-.132-.085-.205c-.068-.073-.533-.15-.533-.15-.593-.096-.889-.586-1.109-.951-.056-.093-.107-.178-.157-.247-.102-.139-.467-.901-.752-1.635l-1.43-3.682-1.555-4.003-1.494-3.85-.208-.535v-.001c-.314-.81-.44-1.137-.475-1.182-.113-.143-.462 0-.462 0Zm-.167 4.932c-.113-.275-.312-.769-.442-1.097-.237-.596-.326-.734-.4-.61-.021.035-.17.443-.33.905a597.062 597.062 0 0 1-1.604 4.596c-.059.16-.108.324-.108.365 0 .048.845.076 2.293.076 1.261 0 2.293-.016 2.293-.035 0-.02-.112-.305-.25-.635s-.474-1.155-.748-1.833a497.48 497.48 0 0 0-.704-1.732Z" fill="currentColor"/></svg>