<?xml version="1.0" encoding="utf-8"?><svg width="22" height="22" fill="none" xmlns="http://www.w3.org/2000/svg" viewBox="0 0 22 22"><path fill-rule="evenodd" clip-rule="evenodd" d="M4 0a4 4 0 0 0-4 4v14a4 4 0 0 0 4 4h14a4 4 0 0 0 4-4V4a4 4 0 0 0-4-4H4Zm-.334 3.5a.75.75 0 0 0-.338 1.154l5.614 7.45-5.915 6.345-.044.051H5.03l4.83-5.179 3.712 4.928a.75.75 0 0 0 .337.251h4.422a.749.749 0 0 0 .336-1.154l-5.614-7.45L19.017 3.5h-2.05l-4.83 5.18-3.714-4.928a.75.75 0 0 0-.337-.252h-4.42Zm10.88 13.548L5.431 4.952H7.45l9.114 12.095-2.018.001Z" fill="currentColor"/></svg>