<?xml version="1.0" encoding="utf-8"?><svg width="24" height="24" fill="none" xmlns="http://www.w3.org/2000/svg" viewBox="0 0 24 24"><path d="M12 0C5.376 0 0 5.376 0 12s5.376 12 12 12 12-5.376 12-12S18.624 0 12 0Zm0 19.104A7.103 7.103 0 0 1 4.896 12 7.103 7.103 0 0 1 12 4.896 7.103 7.103 0 0 1 19.104 12 7.103 7.103 0 0 1 12 19.104Zm0-13.332A6.238 6.238 0 0 0 5.772 12 6.238 6.238 0 0 0 12 18.228 6.238 6.238 0 0 0 18.228 12 6.238 6.238 0 0 0 12 5.772ZM9.684 15.54V8.46L15.816 12l-6.132 3.54Z" fill="currentColor"/></svg>