<?xml version="1.0" encoding="utf-8"?><svg xmlns="http://www.w3.org/2000/svg" xmlns:xlink="http://www.w3.org/1999/xlink"><symbol fill="none" viewBox="0 0 24 24" id="arrow-link" xmlns="http://www.w3.org/2000/svg"><path fill-rule="evenodd" clip-rule="evenodd" d="M8.25 3.75H19.5a.75.75 0 0 1 .75.75v11.25a.75.75 0 1 1-1.5 0V6.31L5.03 20.03a.75.75 0 0 1-1.06-1.06L17.69 5.25H8.25a.75.75 0 0 1 0-1.5Z" fill="#000"/></symbol><symbol fill="none" viewBox="0 0 16 16" id="copy" xmlns="http://www.w3.org/2000/svg"><path d="M10.16 1.333H7.564c-1.176 0-2.108 0-2.837.099-.75.101-1.358.314-1.836.795-.48.48-.692 1.09-.793 1.844C2 4.803 2 5.738 2 6.919v3.892a2.41 2.41 0 0 0 1.485 2.228c-.045-.607-.045-1.457-.045-2.165v-3.34c0-.854 0-1.59.079-2.18.084-.632.275-1.237.764-1.728.49-.492 1.093-.683 1.722-.768.587-.079 1.32-.079 2.172-.079h2.046c.851 0 1.583 0 2.17.079a2.4 2.4 0 0 0-2.233-1.525Z" fill="#000"/><path d="M4.4 7.598c0-1.818 0-2.726.563-3.291.562-.565 1.466-.565 3.277-.565h1.92c1.81 0 2.715 0 3.278.565.563.565.562 1.473.562 3.29v3.214c0 1.817 0 2.726-.562 3.29-.563.565-1.468.565-3.278.565H8.24c-1.81 0-2.715 0-3.277-.565-.563-.564-.563-1.473-.563-3.29V7.598Z" fill="#000"/></symbol><symbol fill="none" viewBox="0 0 24 19" id="discord" xmlns="http://www.w3.org/2000/svg"><g clip-path="url(#da)"><path d="M20.33 1.585A19.292 19.292 0 0 0 15.38 0c-.213.393-.463.92-.634 1.341a17.855 17.855 0 0 0-5.488 0C9.086.921 8.831.393 8.616 0 6.902.302 5.236.836 3.66 1.589.527 6.41-.322 11.114.102 15.749c2.079 1.581 4.093 2.541 6.073 3.17.492-.69.927-1.42 1.3-2.182a12.698 12.698 0 0 1-2.048-1.015c.172-.13.34-.264.502-.404 3.95 1.88 8.24 1.88 12.142 0 .164.139.331.274.502.404-.653.4-1.34.741-2.052 1.017.376.766.81 1.496 1.3 2.182 1.983-.629 3.999-1.589 6.077-3.171.498-5.375-.851-10.034-3.568-14.165ZM8.013 12.898c-1.185 0-2.157-1.127-2.157-2.5 0-1.372.951-2.5 2.157-2.5 1.207 0 2.179 1.126 2.158 2.5.002 1.373-.951 2.5-2.158 2.5Zm7.974 0c-1.186 0-2.158-1.127-2.158-2.5 0-1.372.952-2.5 2.158-2.5s2.178 1.126 2.157 2.5c0 1.373-.951 2.5-2.157 2.5Z" fill="#5865F2"/></g><defs><clipPath id="da"><path fill="#fff" d="M0 0h24v19H0z"/></clipPath></defs></symbol><symbol fill="none" viewBox="0 0 24 24" id="discord-link" xmlns="http://www.w3.org/2000/svg"><circle cx="12" cy="12" r="12" fill="currentColor"/><path d="M16.846 7.831A11.88 11.88 0 0 0 13.999 7a.069.069 0 0 0-.047.019c-.12.206-.26.475-.353.68-1.06-.149-2.14-.149-3.2 0a6.1 6.1 0 0 0-.36-.68C10.032 7.006 10.012 7 9.992 7c-1 .162-1.953.444-2.847.831-.006 0-.013.006-.02.013-1.813 2.543-2.313 5.017-2.066 7.466 0 .013.006.025.02.032a11.9 11.9 0 0 0 3.493 1.655c.02.007.04 0 .047-.012.267-.344.507-.706.713-1.087.014-.025 0-.05-.026-.056-.38-.138-.74-.3-1.094-.488-.026-.012-.026-.05-.006-.069.073-.05.146-.106.22-.156a.043.043 0 0 1 .046-.006c2.294.98 4.767.98 7.034 0 .013-.006.033-.006.046.006.074.056.147.106.22.163.027.018.027.056-.006.068-.347.194-.714.35-1.094.488-.026.006-.033.037-.026.056.213.381.453.744.713 1.087.02.006.04.013.06.006 1.147-.33 2.3-.83 3.5-1.655a.034.034 0 0 0 .02-.032c.294-2.83-.486-5.286-2.067-7.466-.006-.007-.013-.013-.026-.013Zm-7.167 5.986c-.687 0-1.26-.594-1.26-1.325 0-.73.56-1.324 1.26-1.324.707 0 1.267.6 1.26 1.324 0 .731-.56 1.325-1.26 1.325Zm4.647 0c-.687 0-1.26-.594-1.26-1.325 0-.73.56-1.324 1.26-1.324.706 0 1.266.6 1.26 1.324 0 .731-.554 1.325-1.26 1.325Z" fill="#fff"/></symbol><symbol fill="none" viewBox="0 0 32 32" id="exchange" xmlns="http://www.w3.org/2000/svg"><path d="M4 24a2.667 2.667 0 1 0 5.333 0A2.667 2.667 0 0 0 4 24ZM22.667 8A2.667 2.667 0 1 0 28 8a2.667 2.667 0 0 0-5.333 0Z" stroke="#000" stroke-width="1.333" stroke-linecap="round" stroke-linejoin="round"/><path d="M25.333 10.667v6.666A6.667 6.667 0 0 1 18.667 24h-4m0 0 4-4m-4 4 4 4M6.667 21.333v-6.666A6.667 6.667 0 0 1 13.333 8h4m0 0-4-4m4 4-4 4" stroke="#000" stroke-width="1.333" stroke-linecap="round" stroke-linejoin="round"/></symbol><symbol fill="none" viewBox="0 0 24 24" id="facebook" xmlns="http://www.w3.org/2000/svg"><g clip-path="url(#ga)"><path d="M24 12c0-6.627-5.373-12-12-12S0 5.373 0 12c0 5.99 4.388 10.954 10.125 11.854V15.47H7.078V12h3.047V9.356c0-3.007 1.792-4.668 4.533-4.668 1.313 0 2.686.234 2.686.234v2.953H15.83c-1.491 0-1.956.925-1.956 1.874V12h3.328l-.532 3.469h-2.796v8.385C19.612 22.954 24 17.99 24 12Z" fill="#1877F2"/><path d="M16.671 15.469 17.203 12h-3.328V9.75c0-.95.465-1.875 1.956-1.875h1.513V4.922s-1.374-.234-2.687-.234c-2.74 0-4.532 1.66-4.532 4.668V12H7.078v3.469h3.047v8.385a12.1 12.1 0 0 0 3.75 0V15.47h2.796Z" fill="#fff"/></g><defs><clipPath id="ga"><path fill="#fff" d="M0 0h24v24H0z"/></clipPath></defs></symbol><symbol fill="none" viewBox="0 0 24 24" id="facebook-link" xmlns="http://www.w3.org/2000/svg"><path d="M24 12.03C24 5.39 18.624 0 12 0S0 5.39 0 12.03c0 5.823 4.128 10.67 9.6 11.79v-8.18H7.2v-3.61h2.4V9.023a4.21 4.21 0 0 1 4.2-4.211h3v3.609h-2.4c-.66 0-1.2.541-1.2 1.203v2.406h3.6v3.61h-3.6V24c6.06-.602 10.8-5.726 10.8-11.97Z" fill="currentColor"/></symbol><symbol fill="none" viewBox="0 0 32 32" id="governance" xmlns="http://www.w3.org/2000/svg"><path d="M10.667 17.333v-10a2 2 0 0 1 4 0V16M14.667 7.333V4.667a2 2 0 0 1 4 0V16M18.667 7.333a2 2 0 0 1 4 0V16" stroke="#000" stroke-width="1.333" stroke-linecap="round" stroke-linejoin="round"/><path d="M22.667 10a2 2 0 1 1 4 0v11.333a8 8 0 0 1-8 8H16h.277a8 8 0 0 1-6.682-3.6 89.411 89.411 0 0 1-.262-.4c-.416-.638-1.876-3.184-4.381-7.637A2 2 0 0 1 5.667 15a2.49 2.49 0 0 1 3.04.373l1.96 1.96" stroke="#000" stroke-width="1.333" stroke-linecap="round" stroke-linejoin="round"/></symbol><symbol fill="none" viewBox="0 0 20 16" id="hands" xmlns="http://www.w3.org/2000/svg"><path d="M6.4 7.2A1.001 1.001 0 0 0 5 7c-.44.331-.531.96-.2 1.4l1.19 1.588a.5.5 0 0 1-.046.653l-.4.4a.497.497 0 0 1-.738-.035L2 7.637V3a.999.999 0 1 0-2 0v6.825c0 .34.116.672.328.938l3.253 4.196c.156.204.263.435.325.678a.49.49 0 0 0 .478.363H8.5c.275 0 .5-.225.5-.5V12c0-.866-.281-1.706-.8-2.4L6.4 7.2ZM19 2c-.553 0-1 .447-1 1v4.638l-2.806 3.368a.502.502 0 0 1-.738.035l-.4-.4a.5.5 0 0 1-.047-.653L15.2 8.4c.331-.44.24-1.069-.2-1.4a1.001 1.001 0 0 0-1.4.2l-1.8 2.4A4.006 4.006 0 0 0 11 12v3.5c0 .275.225.5.5.5h4.116a.492.492 0 0 0 .478-.363c.062-.243.168-.475.325-.678l3.253-4.197c.212-.265.328-.596.328-.937V3c0-.553-.447-1-1-1Z" fill="#01FF87"/></symbol><symbol fill="none" viewBox="0 0 32 32" id="impact" xmlns="http://www.w3.org/2000/svg"><path d="m26 16.763-10 9.904-10-9.904a6.668 6.668 0 1 1 10-8.755 6.667 6.667 0 1 1 10 8.763" stroke="#000" stroke-width="1.333" stroke-linecap="round" stroke-linejoin="round"/><path d="m16 8-4.39 4.39a1.333 1.333 0 0 0 0 1.886l.723.724c.92.92 2.414.92 3.334 0L17 13.667a4.243 4.243 0 0 1 6 0l3 3M16.667 20.667l2.666 2.666M20 17.333 22.667 20" stroke="#000" stroke-width="1.333" stroke-linecap="round" stroke-linejoin="round"/></symbol><symbol fill="none" viewBox="0 0 32 32" id="integration" xmlns="http://www.w3.org/2000/svg"><path d="M20 16h5.453C26.86 16 28 17.193 28 18.667c0 1.473-1.14 2.666-2.547 2.666C26.86 21.333 28 22.527 28 24c0 1.473-1.14 2.667-2.547 2.667H20M21.333 21.333h5.334M21.333 14.667V28 16M25.333 14.667V16M25.333 26.667V28M4 6.667a2.667 2.667 0 1 0 5.333 0 2.667 2.667 0 0 0-5.333 0ZM20 6.667a2.667 2.667 0 1 0 5.334 0 2.667 2.667 0 0 0-5.334 0ZM9.333 6.667H20" stroke="#000" stroke-width="1.333" stroke-linecap="round" stroke-linejoin="round"/><path d="M9.333 6.667v10.666a4 4 0 0 0 4 4h1.334" stroke="#000" stroke-width="1.333" stroke-linecap="round" stroke-linejoin="round"/></symbol><symbol fill="none" viewBox="0 0 24 24" id="linkedin" xmlns="http://www.w3.org/2000/svg"><g clip-path="url(#ma)"><path d="M18.375 0H5.625A5.625 5.625 0 0 0 0 5.625v12.75A5.625 5.625 0 0 0 5.625 24h12.75A5.625 5.625 0 0 0 24 18.375V5.625A5.625 5.625 0 0 0 18.375 0Z" fill="#0A66C2"/><path d="M17.317 20.408h2.744a.375.375 0 0 0 .375-.375l.002-5.798c0-3.03-.653-5.36-4.195-5.36a3.68 3.68 0 0 0-3.3 1.803.03.03 0 0 1-.015.013.03.03 0 0 1-.035-.01.03.03 0 0 1-.006-.018V9.531a.375.375 0 0 0-.375-.375H9.908a.375.375 0 0 0-.375.375v10.501a.375.375 0 0 0 .375.375h2.744a.375.375 0 0 0 .375-.375v-5.19c0-1.469.278-2.89 2.098-2.89 1.794 0 1.817 1.68 1.817 2.984v5.097a.375.375 0 0 0 .375.375ZM3.562 5.59c0 1.112.916 2.028 2.028 2.028A2.038 2.038 0 0 0 7.618 5.59 2.037 2.037 0 0 0 5.59 3.563 2.037 2.037 0 0 0 3.563 5.59Zm.653 14.818h2.747a.375.375 0 0 0 .375-.375V9.531a.375.375 0 0 0-.375-.375H4.215a.375.375 0 0 0-.375.375v10.502a.375.375 0 0 0 .375.375Z" fill="#fff"/></g><defs><clipPath id="ma"><path fill="#fff" d="M0 0h24v24H0z"/></clipPath></defs></symbol><symbol fill="none" viewBox="0 0 24 24" id="linkedin-link" xmlns="http://www.w3.org/2000/svg"><path d="M12 0C5.372 0 0 5.372 0 12s5.372 12 12 12 12-5.372 12-12S18.628 0 12 0ZM9.062 16.974h-2.43v-7.82h2.43v7.82Zm-1.23-8.78c-.767 0-1.263-.544-1.263-1.217 0-.686.511-1.213 1.295-1.213.784 0 1.263.527 1.279 1.213 0 .673-.495 1.217-1.31 1.217Zm10.105 8.78h-2.43V12.64c0-1.009-.352-1.694-1.23-1.694-.672 0-1.07.464-1.247.91-.065.159-.081.384-.081.608v4.508h-2.431v-5.325c0-.976-.032-1.792-.064-2.495h2.111l.111 1.087h.049c.32-.51 1.104-1.263 2.415-1.263 1.599 0 2.797 1.071 2.797 3.374v4.624Z" fill="currentColor"/></symbol><symbol fill="none" viewBox="0 0 200 42" id="logo" xmlns="http://www.w3.org/2000/svg"><path d="M38.017 19.627c.076.684.114 1.273.114 1.767 0 5.477-1.77 10.117-5.307 13.92-3.537 3.802-7.973 5.704-13.307 5.704-5.334 0-9.968-1.92-13.788-5.761C1.91 31.416 0 26.795 0 21.394S1.91 11.372 5.73 7.53c3.82-3.84 8.415-5.76 13.787-5.76 3.745 0 7.075.96 9.988 2.88 2.913 1.92 5.202 4.534 6.867 7.843l-5.505 1.598a12.75 12.75 0 0 0-4.625-4.993c-1.987-1.238-4.228-1.856-6.725-1.856-3.898 0-7.216 1.38-9.96 4.139-2.742 2.758-4.113 6.095-4.113 10.011 0 3.916 1.371 7.255 4.114 10.014 2.742 2.76 6.061 4.138 9.959 4.138 3.367 0 6.185-.98 8.456-2.939 2.27-1.96 3.726-4.48 4.37-7.563H18.155V19.57l19.862.057ZM60.486 10.45s-10.942 5.325-10.552 17.925v12.2H44.49V16.936s13.462-6.487 15.996-6.487ZM86.27 13.213h5.445v27.362H86.27v-4.002c-2.272 2.963-5.302 4.444-9.088 4.444-3.787 0-7.19-1.367-9.764-4.102-2.573-2.734-3.86-6.075-3.86-10.021 0-3.946 1.287-7.286 3.86-10.02 2.574-2.735 5.828-4.103 9.764-4.103 3.935 0 6.816 1.48 9.088 4.443v-4.001Zm-14.74 19.8c1.686 1.688 3.721 2.532 6.107 2.532s4.421-.845 6.106-2.533c1.685-1.688 2.528-3.727 2.528-6.118 0-2.391-.843-4.429-2.528-6.118-1.685-1.688-3.72-2.533-6.106-2.533-2.385 0-4.421.845-6.106 2.533-1.685 1.689-2.527 3.728-2.527 6.118s.842 4.43 2.527 6.118ZM113.392 12.77c3.292 0 5.875 1.026 7.748 3.077 1.873 2.052 2.81 5.052 2.81 9.003v15.725h-5.444V25.307c0-2.316-.465-4.073-1.393-5.27-.928-1.195-2.51-1.794-4.744-1.794-1.819 0-3.524.674-5.115 2.023-1.592 1.348-2.386 3.104-2.386 5.27v15.039h-5.444V13.213h5.444v3.2c2.12-2.428 4.961-3.643 8.523-3.643h.001ZM132.622 10.132v8.289h11.051c0-1.423-1.25-2.598-2.763-2.66l-2.565-.062v-4.02l-5.723-1.547ZM139.086 34.807c-.718-.532-1.077-2.108-1.077-4.728v-7.611h-5.444v9.149c0 6.267 2.287 9.4 6.862 9.4 1.588 0 2.929-.266 4.026-.798v-5.526c-1.815.912-3.27.95-4.367.114ZM156.402 9.249c-.799.8-1.765 1.2-2.899 1.2-1.134 0-2.101-.4-2.899-1.2-.799-.8-1.198-1.774-1.198-2.918 0-1.144.399-2.116 1.198-2.917.798-.8 1.765-1.201 2.899-1.201 1.134 0 2.1.4 2.899 1.201.798.8 1.198 1.773 1.198 2.917s-.4 2.117-1.198 2.918Zm-106.41 0c-.8.8-1.765 1.2-2.9 1.2-1.134 0-2.1-.4-2.899-1.2-.799-.8-1.197-1.774-1.197-2.918 0-1.144.398-2.116 1.197-2.917.799-.8 1.765-1.201 2.9-1.201 1.134 0 2.1.4 2.898 1.201.799.8 1.198 1.773 1.198 2.917s-.4 2.117-1.198 2.918ZM150.78 40.575V18.414c.181-2.97-1.958-4.998-1.958-4.998l7.402 1.664v25.495h-5.444ZM184.733 21.364l-.009-.01L200 5.998a24.457 24.457 0 0 0-4.013-4.396L180.531 17.14l-.01.009-15.562-15.643a24.465 24.465 0 0 0-4.039 4.37l15.408 15.489-15.25 15.33a24.4 24.4 0 0 0 4.085 4.323l15.358-15.438 15.263 15.343a24.438 24.438 0 0 0 4.06-4.35l-15.119-15.199.009-.009h-.001ZM58.577 8.475C66.76 5.594 75.304 3.793 83.89 2.642 98.08.8 112.64 1.007 126.62 4.215c1.655.38 3.413.825 5.041 1.305 1.13.327 2.613.783 3.727 1.162 1.65.535 3.271 1.156 4.883 1.793l-.017.046c-16.264-6.084-33.945-7.504-51.147-5.995a148.777 148.777 0 0 0-30.53 5.95v-.001Z" fill="#666"/><path d="m101.89 1.17-.83-.835a.47.47 0 0 0-.667 0l-.83.834a.476.476 0 0 0 0 .671l.83.834a.47.47 0 0 0 .667 0l.83-.834a.476.476 0 0 0 0-.67ZM85.245 2.127l-.83-.834a.47.47 0 0 0-.667 0l-.83.834a.476.476 0 0 0 0 .671l.83.834a.47.47 0 0 0 .668 0l.83-.834a.476.476 0 0 0 0-.67ZM117.58 2.127l-.83-.835a.47.47 0 0 0-.667 0l-.83.835a.476.476 0 0 0 0 .67l.83.834a.47.47 0 0 0 .667 0l.83-.834a.476.476 0 0 0 0-.67ZM132.112 4.874l-.83-.835a.47.47 0 0 0-.667 0l-.83.835a.476.476 0 0 0 0 .67l.83.834a.47.47 0 0 0 .667 0l.83-.834a.476.476 0 0 0 0-.67ZM71.47 4.875l-.83-.835a.47.47 0 0 0-.668 0l-.83.835a.476.476 0 0 0 0 .67l.83.834a.47.47 0 0 0 .668 0l.83-.834a.476.476 0 0 0 0-.67Z" fill="#666"/></symbol><symbol fill="none" viewBox="0 0 49 49" id="logo-placeholder" xmlns="http://www.w3.org/2000/svg"><path fill-rule="evenodd" clip-rule="evenodd" d="M0 24.375C0 10.912 10.912 0 24.375 0 37.837 0 48.75 10.912 48.75 24.375c0 13.462-10.913 24.375-24.375 24.375C10.912 48.75 0 37.837 0 24.375Zm28.445-9.793c-2.225-1.942-5.915-1.942-8.137 0a1.875 1.875 0 0 1-2.47-2.822c3.634-3.18 9.44-3.18 13.075 0 3.782 3.31 3.782 8.795 0 12.105a9.377 9.377 0 0 1-2.093 1.38c-1.69.82-2.57 1.935-2.57 2.88V30a1.875 1.875 0 1 1-3.75 0v-1.875c0-3.198 2.65-5.267 4.688-6.255a5.7 5.7 0 0 0 1.257-.828c2.075-1.817 2.075-4.642 0-6.46Zm-4.07 24.793a1.875 1.875 0 1 0 0-3.75 1.875 1.875 0 0 0 0 3.75Z" fill="currentColor"/></symbol><symbol fill="none" viewBox="0 0 32 32" id="purchase" xmlns="http://www.w3.org/2000/svg"><path d="M12 6.667H9.333a2.667 2.667 0 0 0-2.666 2.666v16A2.667 2.667 0 0 0 9.333 28h13.334a2.667 2.667 0 0 0 2.666-2.667v-16a2.667 2.667 0 0 0-2.666-2.666H20" stroke="#000" stroke-width="1.333" stroke-linecap="round" stroke-linejoin="round"/><path d="M12 6.667A2.667 2.667 0 0 1 14.667 4h2.666a2.667 2.667 0 1 1 0 5.333h-2.666A2.667 2.667 0 0 1 12 6.667ZM18.667 14.667h-3.334a2 2 0 0 0 0 4h1.334a2 2 0 0 1 0 4h-3.334M16 22.667V24m0-10.667v1.334" stroke="#000" stroke-width="1.333" stroke-linecap="round" stroke-linejoin="round"/></symbol><symbol fill="none" viewBox="0 0 24 24" id="telegram" xmlns="http://www.w3.org/2000/svg"><path fill-rule="evenodd" clip-rule="evenodd" d="M19.777 4.43a1.5 1.5 0 0 1 2.062 1.626L19.57 19.813c-.22 1.327-1.676 2.088-2.893 1.427-1.018-.553-2.53-1.405-3.89-2.294-.68-.445-2.763-1.87-2.507-2.884C10.5 15.195 14 11.937 16 10c.785-.761.427-1.2-.5-.5-2.302 1.738-5.998 4.381-7.22 5.125-1.078.656-1.64.768-2.312.656-1.226-.204-2.363-.52-3.291-.905-1.254-.52-1.193-2.244-.001-2.746l17.1-7.2Z" fill="#1098F7"/></symbol><symbol fill="none" viewBox="0 0 24 24" id="telegram-link" xmlns="http://www.w3.org/2000/svg"><path d="M12 0C5.376 0 0 5.376 0 12s5.376 12 12 12 12-5.376 12-12S18.624 0 12 0Zm5.568 8.16c-.18 1.896-.96 6.504-1.356 8.628-.168.9-.504 1.2-.816 1.236-.696.06-1.224-.456-1.896-.9-1.056-.696-1.656-1.128-2.676-1.8-1.188-.78-.42-1.212.264-1.908.18-.18 3.252-2.976 3.312-3.228a.241.241 0 0 0-.06-.216c-.072-.06-.168-.036-.252-.024-.108.024-1.788 1.14-5.064 3.348-.48.324-.912.492-1.296.48-.432-.012-1.248-.24-1.86-.444-.756-.24-1.344-.372-1.296-.792.024-.216.324-.432.888-.66 3.504-1.524 5.832-2.532 6.996-3.012 3.336-1.392 4.02-1.632 4.476-1.632.096 0 .324.024.468.144.12.096.156.228.168.324-.012.072.012.288 0 .456Z" fill="currentColor"/></symbol><symbol fill="none" viewBox="0 0 20 19" id="twitter" xmlns="http://www.w3.org/2000/svg"><path d="M15.75 0h3.067l-6.7 7.677L20 18.126h-6.171L8.99 11.79l-5.528 6.336H.393L7.559 9.91 0 .001h6.329l4.365 5.79L15.75 0Zm-1.079 16.286h1.7L5.4 1.744H3.577l11.094 14.542Z" fill="#000"/></symbol><symbol fill="none" viewBox="0 0 22 22" id="x-link" xmlns="http://www.w3.org/2000/svg"><path fill-rule="evenodd" clip-rule="evenodd" d="M4 0a4 4 0 0 0-4 4v14a4 4 0 0 0 4 4h14a4 4 0 0 0 4-4V4a4 4 0 0 0-4-4H4Zm-.334 3.5a.75.75 0 0 0-.338 1.154l5.614 7.45-5.915 6.345-.044.051H5.03l4.83-5.179 3.712 4.928a.75.75 0 0 0 .337.251h4.422a.749.749 0 0 0 .336-1.154l-5.614-7.45L19.017 3.5h-2.05l-4.83 5.18-3.714-4.928a.75.75 0 0 0-.337-.252h-4.42Zm10.88 13.548L5.431 4.952H7.45l9.114 12.095-2.018.001Z" fill="currentColor"/></symbol><symbol fill="none" viewBox="0 0 24 24" id="youtube" xmlns="http://www.w3.org/2000/svg"><path fill-rule="evenodd" clip-rule="evenodd" d="M12 4c.855 0 1.732.022 2.582.058l1.004.048.961.057.9.061.822.064a3.8 3.8 0 0 1 3.494 3.423l.04.425.075.91c.07.943.122 1.971.122 2.954 0 .983-.052 2.011-.122 2.954l-.075.91-.04.425a3.8 3.8 0 0 1-3.495 3.423l-.82.063-.9.062-.962.057-1.004.048c-.86.037-1.721.057-2.582.058a61.923 61.923 0 0 1-2.582-.058l-1.004-.048-.961-.057-.9-.062-.822-.063a3.8 3.8 0 0 1-3.494-3.423l-.04-.425-.075-.91A41 41 0 0 1 2 12c0-.983.052-2.011.122-2.954l.075-.91.04-.425A3.8 3.8 0 0 1 5.73 4.288l.821-.064.9-.061.962-.057 1.004-.048c.86-.037 1.722-.057 2.583-.058Zm-2 5.575v4.85c0 .462.5.75.9.52l4.2-2.425a.6.6 0 0 0 0-1.04l-4.2-2.424a.6.6 0 0 0-.9.52v-.001Z" fill="#FF1931"/></symbol><symbol fill="none" viewBox="0 0 24 24" id="youtube-link" xmlns="http://www.w3.org/2000/svg"><path d="M12 0C5.376 0 0 5.376 0 12s5.376 12 12 12 12-5.376 12-12S18.624 0 12 0Zm0 19.104A7.103 7.103 0 0 1 4.896 12 7.103 7.103 0 0 1 12 4.896 7.103 7.103 0 0 1 19.104 12 7.103 7.103 0 0 1 12 19.104Zm0-13.332A6.238 6.238 0 0 0 5.772 12 6.238 6.238 0 0 0 12 18.228 6.238 6.238 0 0 0 18.228 12 6.238 6.238 0 0 0 12 5.772ZM9.684 15.54V8.46L15.816 12l-6.132 3.54Z" fill="currentColor"/></symbol></svg>