<?xml version="1.0" encoding="utf-8"?><svg xmlns="http://www.w3.org/2000/svg" xmlns:xlink="http://www.w3.org/1999/xlink"><symbol fill="none" viewBox="0 0 12 6" id="arrow" xmlns="http://www.w3.org/2000/svg"><path d="M10.692.392a.156.156 0 0 1 .229 0 .155.155 0 0 1 0 .228L5.89 5.562l-.002.002a.385.385 0 0 1-.086.07.054.054 0 0 1-.028.007c-.042 0-.079-.01-.137-.054L.628.664H.63a.155.155 0 0 1 0-.229.155.155 0 0 1 .173-.037l.055.037.003.003 4.68 4.573.235.228.233-.23L10.69.394h.002Z" fill="currentColor" stroke="currentColor" stroke-width=".667"/></symbol><symbol fill="none" viewBox="0 0 24 24" id="arrow-link" xmlns="http://www.w3.org/2000/svg"><path fill-rule="evenodd" clip-rule="evenodd" d="M8.25 3.75H19.5a.75.75 0 0 1 .75.75v11.25a.75.75 0 1 1-1.5 0V6.31L5.03 20.03a.75.75 0 0 1-1.06-1.06L17.69 5.25H8.25a.75.75 0 0 1 0-1.5Z" fill="#000"/></symbol><symbol fill="none" viewBox="0 0 113 36" id="bingx" xmlns="http://www.w3.org/2000/svg"><path fill-rule="evenodd" clip-rule="evenodd" d="M30.23 6.48a3.246 3.246 0 0 0 3.238-3.241A3.245 3.245 0 0 0 30.23 0a3.247 3.247 0 0 0-3.238 3.241 3.246 3.246 0 0 0 3.238 3.242V6.48Zm-7.209 4.883a6.642 6.642 0 0 1-1.669 4.666v.015c.892.605 3.108 2.26 3.108 5.443 0 3.642-2.977 6.609-6.634 6.609H0V5.056h16.244c3.568 0 6.605 2.765 6.777 6.307Zm-5.77.458c0-1.613-1.337-2.333-2.862-2.333H5.755v4.593h8.632c1.496 0 2.848-.663 2.861-2.26h.003ZM5.726 18.518l.029 5.142v-.015h10.07c1.483 0 2.849-.964 2.878-2.563 0-1.613-1.353-2.564-2.878-2.564H5.723h.003ZM27.353 7.92h5.754v20.163h-5.754V7.92Zm30.918 9.462c0-5.27-3.597-8.627-7.913-9.331a12.289 12.289 0 0 0-1.669-.131c-1.854 0-4.057.346-6.243 1.44V7.92H36.69v20.163h5.755V17.97c0-4.045 2.359-5.5 5.035-5.5 2.877 0 5.035 1.903 5.035 5.503v10.109h5.755v-10.7Zm41.478-5.04C95.26 7.43 89.532 6.48 86.34 6.48v5.977c2.36 0 6.618.736 9.741 4.81-3.12 4.076-7.381 4.81-9.74 4.81v5.974c3.196 0 8.922-.95 13.41-5.862 4.646 4.94 9.94 5.862 13.252 5.862v-5.977c-2.258 0-6.145-.576-9.626-4.81 3.481-4.233 7.381-4.81 9.626-4.81V6.48c-3.309 0-8.604.922-13.252 5.862h-.002ZM77.693 9.405V7.92h5.739v17.702c0 3.225-1.656 10.38-11.81 10.38-5.093 0-9.294-2.1-11.209-5.024l4.316-2.895c.863 1.18 3.136 2.88 6.474 2.88 5.266 0 6.474-3.627 6.474-5.341-1.583 1.123-3.798 1.74-6.647 1.74-5.51 0-10.604-4.505-10.604-10.265 0-5.76 5.138-9.174 10.617-9.174 3.322 0 5.813 1.08 6.647 1.484l.003-.002Zm-11.51 7.993c0 2.72 2.574 4.925 5.755 4.925 3.18 0 5.755-2.205 5.755-4.925 0-2.72-2.577-4.928-5.755-4.928s-5.755 2.205-5.755 4.928Z" fill="currentColor"/></symbol><symbol fill="none" viewBox="0 0 157 36" id="bitmart" xmlns="http://www.w3.org/2000/svg"><path d="M26.332 2.923C23.962.967 20.716 0 16.572 0H6.262v1.45h10.128c3.521 0 6.698.714 8.655 2.417C27 5.57 28.45 8.057 28.45 11.141c0 2.992-1.289 5.179-3.291 6.859-2.003 1.68-5.64 2.417-9.254 2.417H4.281v1.45h11.716c4.35 0 7.758-.944 10.22-2.831 2.44-1.888 3.683-4.558 3.683-7.987 0-3.5-1.197-6.192-3.567-8.126Z" fill="currentColor"/><path d="M25.458 4.995c-1.473-1.128-3.154-2.026-7.941-2.026H9.552v1.404s3.568-.046 7.78 0c4.075.046 5.57.507 6.952 1.52 1.75 1.289 2.854 2.9 2.854 5.132 0 2.164-1.105 3.683-2.877 4.995-1.796 1.335-4.558 1.335-5.685 1.381H12.66v1.405s2.716.046 4.42 0c3.866-.093 6.168-.323 8.309-1.91 2.002-1.497 3.061-3.454 3.061-5.94 0-3.268-1.657-4.902-2.992-5.961Z" fill="currentColor"/><path d="M24.744 6.86c-1.105-.691-2.071-1.152-6.652-1.152h-5.731v.921h5.57c4.051 0 5.57.714 6.054 1.013.92.552 2.117 1.473 2.117 3.315 0 1.173-.69 2.67-1.726 3.245-.944.53-2.67 1.013-5.686 1.013H0v.92h18.737c3.66 0 4.902-.414 6.191-1.127 1.29-.714 2.164-2.187 2.164-4.051 0-2.118-1.174-3.361-2.348-4.098Z" fill="currentColor"/><path d="M28.381 17.056c-2.37-1.956-5.616-2.923-9.76-2.923h-6.905v1.45h6.698c3.522 0 6.699.737 8.655 2.417 1.957 1.68 3.43 4.19 3.43 7.273 0 2.993-1.266 5.18-3.292 6.86-2.025 1.68-5.64 2.417-9.253 2.417H6.33V36h11.716c4.35 0 7.757-.944 10.22-2.831 2.463-1.888 3.683-4.558 3.683-7.988-.023-3.475-1.197-6.168-3.568-8.125Z" fill="currentColor"/><path d="M27.506 19.128c-1.473-1.105-3.153-2.026-7.94-2.026H8.745v1.404s6.423-.046 10.635 0c4.074.046 5.57.506 6.951 1.52 1.75 1.288 2.855 2.9 2.855 5.132 0 2.164-1.105 3.683-2.878 4.995-1.795 1.335-4.557 1.335-5.685 1.381H14.71v1.404s2.739.046 4.419 0c3.867-.092 6.169-.322 8.31-1.91 2.002-1.496 3.06-3.453 3.06-5.939 0-3.245-1.634-4.902-2.992-5.961Z" fill="currentColor"/><path d="M11.049 23.915h10.15v-.782H11.05v.782ZM15.238 26.655h5.893v-.668h-5.893v.668ZM6.33 23.915h2.992v-.782H6.33v.782ZM4.442 26.7h9.139v-.782H4.442v.783ZM6.698 6.56h3.568v-.644H6.698v.644ZM4.235 11.808h8.126v-.736H4.235v.736ZM4.442 32.846h8.586v-.92H4.442v.92ZM2.325 35.908h2.14V34.55h-2.14v1.358ZM7.665 9.507h13.489V8.77H7.665v.737ZM14.41 11.808h6.49v-.736h-6.49v.736Z" fill="currentColor"/><path d="M26.793 21.13c-1.105-.667-2.072-1.128-6.652-1.128h-7.274v.898h7.136c4.05 0 5.593.69 6.053.967.898.53 2.118 1.404 2.118 3.2 0 1.15-.69 2.577-1.726 3.13-.944.506-2.67.967-5.686.967H2.05v.897h18.736c3.66 0 4.903-.391 6.192-1.082 1.289-.69 2.14-2.094 2.14-3.913.024-2.002-1.15-3.2-2.324-3.936ZM45.99 19.128v8.217h4.488c1.934 0 3.453-.368 4.512-1.105A3.537 3.537 0 0 0 56.6 23.18c0-2.693-2.279-4.051-6.813-4.051H45.99Zm0-9.783v7.366h3.383c1.819 0 3.223-.345 4.259-1.059a3.407 3.407 0 0 0 1.565-2.992c0-2.21-1.796-3.338-5.41-3.338l-3.797.023Zm-3.315 20.417V6.928h8.033c2.44 0 4.374.484 5.8 1.45 1.428.967 2.142 2.233 2.142 3.775a4.863 4.863 0 0 1-1.29 3.384c-.874.967-2.048 1.634-3.567 2.048v.07c1.91.184 3.43.76 4.557 1.749a4.772 4.772 0 0 1 1.704 3.82c0 1.957-.875 3.523-2.601 4.743-1.727 1.22-3.913 1.818-6.56 1.818h-8.218v-.023ZM63.737 29.762h3.222V13.465h-3.222v16.297ZM65.37 9.3a2.27 2.27 0 0 1-1.473-.483 1.403 1.403 0 0 1-.599-1.197c0-.484.23-.944.599-1.22a2.27 2.27 0 0 1 1.473-.484 2.29 2.29 0 0 1 1.496.484 1.5 1.5 0 0 1 .345 2.071 1.233 1.233 0 0 1-.345.346 2.17 2.17 0 0 1-1.496.483ZM81.207 29.601c-.76.346-1.772.507-3.015.507-3.522 0-5.294-1.589-5.294-4.788v-9.645h-3.453v-2.232h3.453V9.46l3.222-.852v4.834h5.064v2.232H76.12v9.184c0 1.082.23 1.865.69 2.348.461.484 1.22.69 2.28.69a3.719 3.719 0 0 0 2.094-.551l.023 2.255ZM110.509 29.762h-3.015V15.675c.023-1.358.092-2.74.253-4.097h-.069c-.184.69-.461 1.38-.783 2.025L98.033 29.74h-1.496l-8.839-16.02a10.121 10.121 0 0 1-.782-2.164h-.07c.116 1.358.162 2.739.139 4.12v14.064H84.06V8.747h4.028l7.965 14.639c.46.806.874 1.657 1.197 2.532h.115c.53-1.151.944-2.003 1.243-2.578l8.125-14.593h3.798v21.015M126.898 21.499l-4.857.552c-1.496.161-2.624.46-3.384.898-.759.437-1.15 1.197-1.15 2.279 0 .782.391 1.519 1.058 1.956.691.507 1.635.76 2.809.76 1.611 0 2.923-.46 3.959-1.358a4.408 4.408 0 0 0 1.565-3.453v-1.634Zm3.222 8.263h-3.222v-2.555h-.069c-1.404 1.957-3.476 2.924-6.192 2.924-2.003 0-3.568-.438-4.719-1.29-1.105-.782-1.726-2.071-1.703-3.43 0-3.038 2.21-4.81 6.652-5.316l6.031-.69c0-2.763-1.381-4.144-4.143-4.144a11.309 11.309 0 0 0-6.56 2.003v-2.67c1.979-1.013 4.258-1.52 6.836-1.52 4.742 0 7.089 2.026 7.089 6.077v10.611ZM145.082 16.09c-.576-.346-1.381-.53-2.44-.53a4.356 4.356 0 0 0-3.453 1.588c-.92 1.06-1.381 2.486-1.381 4.305v8.31h-3.222V13.465h3.222v3.36h.069a5.8 5.8 0 0 1 2.118-2.693c.921-.644 2.025-.967 3.176-.967a6.105 6.105 0 0 1 1.934.23l-.023 2.694Z" fill="currentColor"/><path d="M156.315 29.601c-.76.346-1.773.507-3.016.507-3.521 0-5.294-1.589-5.294-4.788v-9.645h-3.453v-2.232h3.453V9.46l3.223-.852v4.834h5.064v2.232h-5.064v9.184c0 1.082.23 1.865.69 2.348.461.484 1.22.69 2.279.69a3.72 3.72 0 0 0 2.095-.551l.023 2.255Z" fill="currentColor"/></symbol><symbol fill="none" viewBox="0 0 16 16" id="copy" xmlns="http://www.w3.org/2000/svg"><path d="M10.16 1.333H7.564c-1.176 0-2.108 0-2.837.099-.75.101-1.358.314-1.836.795-.48.48-.692 1.09-.793 1.844C2 4.803 2 5.738 2 6.919v3.892a2.41 2.41 0 0 0 1.485 2.228c-.045-.607-.045-1.457-.045-2.165v-3.34c0-.854 0-1.59.079-2.18.084-.632.275-1.237.764-1.728.49-.492 1.093-.683 1.722-.768.587-.079 1.32-.079 2.172-.079h2.046c.851 0 1.583 0 2.17.079a2.4 2.4 0 0 0-2.233-1.525Z" fill="#000"/><path d="M4.4 7.598c0-1.818 0-2.726.563-3.291.562-.565 1.466-.565 3.277-.565h1.92c1.81 0 2.715 0 3.278.565.563.565.562 1.473.562 3.29v3.214c0 1.817 0 2.726-.562 3.29-.563.565-1.468.565-3.278.565H8.24c-1.81 0-2.715 0-3.277-.565-.563-.564-.563-1.473-.563-3.29V7.598Z" fill="#000"/></symbol><symbol fill="none" viewBox="0 0 24 19" id="discord" xmlns="http://www.w3.org/2000/svg"><g clip-path="url(#aga)"><path d="M20.33 1.585A19.292 19.292 0 0 0 15.38 0c-.213.393-.463.92-.634 1.341a17.855 17.855 0 0 0-5.488 0C9.086.921 8.831.393 8.616 0 6.902.302 5.236.836 3.66 1.589.527 6.41-.322 11.114.102 15.749c2.079 1.581 4.093 2.541 6.073 3.17.492-.69.927-1.42 1.3-2.182a12.698 12.698 0 0 1-2.048-1.015c.172-.13.34-.264.502-.404 3.95 1.88 8.24 1.88 12.142 0 .164.139.331.274.502.404-.653.4-1.34.741-2.052 1.017.376.766.81 1.496 1.3 2.182 1.983-.629 3.999-1.589 6.077-3.171.498-5.375-.851-10.034-3.568-14.165ZM8.013 12.898c-1.185 0-2.157-1.127-2.157-2.5 0-1.372.951-2.5 2.157-2.5 1.207 0 2.179 1.126 2.158 2.5.002 1.373-.951 2.5-2.158 2.5Zm7.974 0c-1.186 0-2.158-1.127-2.158-2.5 0-1.372.952-2.5 2.158-2.5s2.178 1.126 2.157 2.5c0 1.373-.951 2.5-2.157 2.5Z" fill="#5865F2"/></g><defs><clipPath id="aga"><path fill="#fff" d="M0 0h24v19H0z"/></clipPath></defs></symbol><symbol fill="none" viewBox="0 0 24 24" id="discord-link" xmlns="http://www.w3.org/2000/svg"><circle cx="12" cy="12" r="12" fill="currentColor"/><path d="M16.846 7.831A11.88 11.88 0 0 0 13.999 7a.069.069 0 0 0-.047.019c-.12.206-.26.475-.353.68-1.06-.149-2.14-.149-3.2 0a6.1 6.1 0 0 0-.36-.68C10.032 7.006 10.012 7 9.992 7c-1 .162-1.953.444-2.847.831-.006 0-.013.006-.02.013-1.813 2.543-2.313 5.017-2.066 7.466 0 .013.006.025.02.032a11.9 11.9 0 0 0 3.493 1.655c.02.007.04 0 .047-.012.267-.344.507-.706.713-1.087.014-.025 0-.05-.026-.056-.38-.138-.74-.3-1.094-.488-.026-.012-.026-.05-.006-.069.073-.05.146-.106.22-.156a.043.043 0 0 1 .046-.006c2.294.98 4.767.98 7.034 0 .013-.006.033-.006.046.006.074.056.147.106.22.163.027.018.027.056-.006.068-.347.194-.714.35-1.094.488-.026.006-.033.037-.026.056.213.381.453.744.713 1.087.02.006.04.013.06.006 1.147-.33 2.3-.83 3.5-1.655a.034.034 0 0 0 .02-.032c.294-2.83-.486-5.286-2.067-7.466-.006-.007-.013-.013-.026-.013Zm-7.167 5.986c-.687 0-1.26-.594-1.26-1.325 0-.73.56-1.324 1.26-1.324.707 0 1.267.6 1.26 1.324 0 .731-.56 1.325-1.26 1.325Zm4.647 0c-.687 0-1.26-.594-1.26-1.325 0-.73.56-1.324 1.26-1.324.706 0 1.266.6 1.26 1.324 0 .731-.554 1.325-1.26 1.325Z" fill="#fff"/></symbol><symbol fill="none" viewBox="0 0 32 32" id="exchange" xmlns="http://www.w3.org/2000/svg"><path d="M4 24a2.667 2.667 0 1 0 5.333 0A2.667 2.667 0 0 0 4 24ZM22.667 8A2.667 2.667 0 1 0 28 8a2.667 2.667 0 0 0-5.333 0Z" stroke="#000" stroke-width="1.333" stroke-linecap="round" stroke-linejoin="round"/><path d="M25.333 10.667v6.666A6.667 6.667 0 0 1 18.667 24h-4m0 0 4-4m-4 4 4 4M6.667 21.333v-6.666A6.667 6.667 0 0 1 13.333 8h4m0 0-4-4m4 4-4 4" stroke="#000" stroke-width="1.333" stroke-linecap="round" stroke-linejoin="round"/></symbol><symbol fill="none" viewBox="0 0 24 24" id="facebook" xmlns="http://www.w3.org/2000/svg"><g clip-path="url(#aja)"><path d="M24 12c0-6.627-5.373-12-12-12S0 5.373 0 12c0 5.99 4.388 10.954 10.125 11.854V15.47H7.078V12h3.047V9.356c0-3.007 1.792-4.668 4.533-4.668 1.313 0 2.686.234 2.686.234v2.953H15.83c-1.491 0-1.956.925-1.956 1.874V12h3.328l-.532 3.469h-2.796v8.385C19.612 22.954 24 17.99 24 12Z" fill="#1877F2"/><path d="M16.671 15.469 17.203 12h-3.328V9.75c0-.95.465-1.875 1.956-1.875h1.513V4.922s-1.374-.234-2.687-.234c-2.74 0-4.532 1.66-4.532 4.668V12H7.078v3.469h3.047v8.385a12.1 12.1 0 0 0 3.75 0V15.47h2.796Z" fill="#fff"/></g><defs><clipPath id="aja"><path fill="#fff" d="M0 0h24v24H0z"/></clipPath></defs></symbol><symbol fill="none" viewBox="0 0 24 24" id="facebook-link" xmlns="http://www.w3.org/2000/svg"><path d="M24 12.03C24 5.39 18.624 0 12 0S0 5.39 0 12.03c0 5.823 4.128 10.67 9.6 11.79v-8.18H7.2v-3.61h2.4V9.023a4.21 4.21 0 0 1 4.2-4.211h3v3.609h-2.4c-.66 0-1.2.541-1.2 1.203v2.406h3.6v3.61h-3.6V24c6.06-.602 10.8-5.726 10.8-11.97Z" fill="currentColor"/></symbol><symbol fill="none" viewBox="0 0 32 32" id="governance" xmlns="http://www.w3.org/2000/svg"><path d="M10.667 17.333v-10a2 2 0 0 1 4 0V16M14.667 7.333V4.667a2 2 0 0 1 4 0V16M18.667 7.333a2 2 0 0 1 4 0V16" stroke="#000" stroke-width="1.333" stroke-linecap="round" stroke-linejoin="round"/><path d="M22.667 10a2 2 0 1 1 4 0v11.333a8 8 0 0 1-8 8H16h.277a8 8 0 0 1-6.682-3.6 89.411 89.411 0 0 1-.262-.4c-.416-.638-1.876-3.184-4.381-7.637A2 2 0 0 1 5.667 15a2.49 2.49 0 0 1 3.04.373l1.96 1.96" stroke="#000" stroke-width="1.333" stroke-linecap="round" stroke-linejoin="round"/></symbol><symbol fill="none" viewBox="0 0 20 16" id="hands" xmlns="http://www.w3.org/2000/svg"><path d="M6.4 7.2A1.001 1.001 0 0 0 5 7c-.44.331-.531.96-.2 1.4l1.19 1.588a.5.5 0 0 1-.046.653l-.4.4a.497.497 0 0 1-.738-.035L2 7.637V3a.999.999 0 1 0-2 0v6.825c0 .34.116.672.328.938l3.253 4.196c.156.204.263.435.325.678a.49.49 0 0 0 .478.363H8.5c.275 0 .5-.225.5-.5V12c0-.866-.281-1.706-.8-2.4L6.4 7.2ZM19 2c-.553 0-1 .447-1 1v4.638l-2.806 3.368a.502.502 0 0 1-.738.035l-.4-.4a.5.5 0 0 1-.047-.653L15.2 8.4c.331-.44.24-1.069-.2-1.4a1.001 1.001 0 0 0-1.4.2l-1.8 2.4A4.006 4.006 0 0 0 11 12v3.5c0 .275.225.5.5.5h4.116a.492.492 0 0 0 .478-.363c.062-.243.168-.475.325-.678l3.253-4.197c.212-.265.328-.596.328-.937V3c0-.553-.447-1-1-1Z" fill="#01FF87"/></symbol><symbol fill="none" viewBox="0 0 32 32" id="impact" xmlns="http://www.w3.org/2000/svg"><path d="m26 16.763-10 9.904-10-9.904a6.668 6.668 0 1 1 10-8.755 6.667 6.667 0 1 1 10 8.763" stroke="#000" stroke-width="1.333" stroke-linecap="round" stroke-linejoin="round"/><path d="m16 8-4.39 4.39a1.333 1.333 0 0 0 0 1.886l.723.724c.92.92 2.414.92 3.334 0L17 13.667a4.243 4.243 0 0 1 6 0l3 3M16.667 20.667l2.666 2.666M20 17.333 22.667 20" stroke="#000" stroke-width="1.333" stroke-linecap="round" stroke-linejoin="round"/></symbol><symbol fill="none" viewBox="0 0 32 32" id="integration" xmlns="http://www.w3.org/2000/svg"><path d="M20 16h5.453C26.86 16 28 17.193 28 18.667c0 1.473-1.14 2.666-2.547 2.666C26.86 21.333 28 22.527 28 24c0 1.473-1.14 2.667-2.547 2.667H20M21.333 21.333h5.334M21.333 14.667V28 16M25.333 14.667V16M25.333 26.667V28M4 6.667a2.667 2.667 0 1 0 5.333 0 2.667 2.667 0 0 0-5.333 0ZM20 6.667a2.667 2.667 0 1 0 5.334 0 2.667 2.667 0 0 0-5.334 0ZM9.333 6.667H20" stroke="#000" stroke-width="1.333" stroke-linecap="round" stroke-linejoin="round"/><path d="M9.333 6.667v10.666a4 4 0 0 0 4 4h1.334" stroke="#000" stroke-width="1.333" stroke-linecap="round" stroke-linejoin="round"/></symbol><symbol fill="none" viewBox="0 0 24 24" id="linkedin" xmlns="http://www.w3.org/2000/svg"><g clip-path="url(#apa)"><path d="M18.375 0H5.625A5.625 5.625 0 0 0 0 5.625v12.75A5.625 5.625 0 0 0 5.625 24h12.75A5.625 5.625 0 0 0 24 18.375V5.625A5.625 5.625 0 0 0 18.375 0Z" fill="#0A66C2"/><path d="M17.317 20.408h2.744a.375.375 0 0 0 .375-.375l.002-5.798c0-3.03-.653-5.36-4.195-5.36a3.68 3.68 0 0 0-3.3 1.803.03.03 0 0 1-.015.013.03.03 0 0 1-.035-.01.03.03 0 0 1-.006-.018V9.531a.375.375 0 0 0-.375-.375H9.908a.375.375 0 0 0-.375.375v10.501a.375.375 0 0 0 .375.375h2.744a.375.375 0 0 0 .375-.375v-5.19c0-1.469.278-2.89 2.098-2.89 1.794 0 1.817 1.68 1.817 2.984v5.097a.375.375 0 0 0 .375.375ZM3.562 5.59c0 1.112.916 2.028 2.028 2.028A2.038 2.038 0 0 0 7.618 5.59 2.037 2.037 0 0 0 5.59 3.563 2.037 2.037 0 0 0 3.563 5.59Zm.653 14.818h2.747a.375.375 0 0 0 .375-.375V9.531a.375.375 0 0 0-.375-.375H4.215a.375.375 0 0 0-.375.375v10.502a.375.375 0 0 0 .375.375Z" fill="#fff"/></g><defs><clipPath id="apa"><path fill="#fff" d="M0 0h24v24H0z"/></clipPath></defs></symbol><symbol fill="none" viewBox="0 0 24 24" id="linkedin-link" xmlns="http://www.w3.org/2000/svg"><path d="M12 0C5.372 0 0 5.372 0 12s5.372 12 12 12 12-5.372 12-12S18.628 0 12 0ZM9.062 16.974h-2.43v-7.82h2.43v7.82Zm-1.23-8.78c-.767 0-1.263-.544-1.263-1.217 0-.686.511-1.213 1.295-1.213.784 0 1.263.527 1.279 1.213 0 .673-.495 1.217-1.31 1.217Zm10.105 8.78h-2.43V12.64c0-1.009-.352-1.694-1.23-1.694-.672 0-1.07.464-1.247.91-.065.159-.081.384-.081.608v4.508h-2.431v-5.325c0-.976-.032-1.792-.064-2.495h2.111l.111 1.087h.049c.32-.51 1.104-1.263 2.415-1.263 1.599 0 2.797 1.071 2.797 3.374v4.624Z" fill="currentColor"/></symbol><symbol fill="none" viewBox="0 0 200 42" id="logo" xmlns="http://www.w3.org/2000/svg"><path d="M38.017 19.627c.076.684.114 1.273.114 1.767 0 5.477-1.77 10.117-5.307 13.92-3.537 3.802-7.973 5.704-13.307 5.704-5.334 0-9.968-1.92-13.788-5.761C1.91 31.416 0 26.795 0 21.394S1.91 11.372 5.73 7.53c3.82-3.84 8.415-5.76 13.787-5.76 3.745 0 7.075.96 9.988 2.88 2.913 1.92 5.202 4.534 6.867 7.843l-5.505 1.598a12.75 12.75 0 0 0-4.625-4.993c-1.987-1.238-4.228-1.856-6.725-1.856-3.898 0-7.216 1.38-9.96 4.139-2.742 2.758-4.113 6.095-4.113 10.011 0 3.916 1.371 7.255 4.114 10.014 2.742 2.76 6.061 4.138 9.959 4.138 3.367 0 6.185-.98 8.456-2.939 2.27-1.96 3.726-4.48 4.37-7.563H18.155V19.57l19.862.057ZM60.486 10.45s-10.942 5.325-10.552 17.925v12.2H44.49V16.936s13.462-6.487 15.996-6.487ZM86.27 13.213h5.445v27.362H86.27v-4.002c-2.272 2.963-5.302 4.444-9.088 4.444-3.787 0-7.19-1.367-9.764-4.102-2.573-2.734-3.86-6.075-3.86-10.021 0-3.946 1.287-7.286 3.86-10.02 2.574-2.735 5.828-4.103 9.764-4.103 3.935 0 6.816 1.48 9.088 4.443v-4.001Zm-14.74 19.8c1.686 1.688 3.721 2.532 6.107 2.532s4.421-.845 6.106-2.533c1.685-1.688 2.528-3.727 2.528-6.118 0-2.391-.843-4.429-2.528-6.118-1.685-1.688-3.72-2.533-6.106-2.533-2.385 0-4.421.845-6.106 2.533-1.685 1.689-2.527 3.728-2.527 6.118s.842 4.43 2.527 6.118ZM113.392 12.77c3.292 0 5.875 1.026 7.748 3.077 1.873 2.052 2.81 5.052 2.81 9.003v15.725h-5.444V25.307c0-2.316-.465-4.073-1.393-5.27-.928-1.195-2.51-1.794-4.744-1.794-1.819 0-3.524.674-5.115 2.023-1.592 1.348-2.386 3.104-2.386 5.27v15.039h-5.444V13.213h5.444v3.2c2.12-2.428 4.961-3.643 8.523-3.643h.001ZM132.622 10.132v8.289h11.051c0-1.423-1.25-2.598-2.763-2.66l-2.565-.062v-4.02l-5.723-1.547ZM139.086 34.807c-.718-.532-1.077-2.108-1.077-4.728v-7.611h-5.444v9.149c0 6.267 2.287 9.4 6.862 9.4 1.588 0 2.929-.266 4.026-.798v-5.526c-1.815.912-3.27.95-4.367.114ZM156.402 9.249c-.799.8-1.765 1.2-2.899 1.2-1.134 0-2.101-.4-2.899-1.2-.799-.8-1.198-1.774-1.198-2.918 0-1.144.399-2.116 1.198-2.917.798-.8 1.765-1.201 2.899-1.201 1.134 0 2.1.4 2.899 1.201.798.8 1.198 1.773 1.198 2.917s-.4 2.117-1.198 2.918Zm-106.41 0c-.8.8-1.765 1.2-2.9 1.2-1.134 0-2.1-.4-2.899-1.2-.799-.8-1.197-1.774-1.197-2.918 0-1.144.398-2.116 1.197-2.917.799-.8 1.765-1.201 2.9-1.201 1.134 0 2.1.4 2.898 1.201.799.8 1.198 1.773 1.198 2.917s-.4 2.117-1.198 2.918ZM150.78 40.575V18.414c.181-2.97-1.958-4.998-1.958-4.998l7.402 1.664v25.495h-5.444ZM184.733 21.364l-.009-.01L200 5.998a24.457 24.457 0 0 0-4.013-4.396L180.531 17.14l-.01.009-15.562-15.643a24.465 24.465 0 0 0-4.039 4.37l15.408 15.489-15.25 15.33a24.4 24.4 0 0 0 4.085 4.323l15.358-15.438 15.263 15.343a24.438 24.438 0 0 0 4.06-4.35l-15.119-15.199.009-.009h-.001ZM58.577 8.475C66.76 5.594 75.304 3.793 83.89 2.642 98.08.8 112.64 1.007 126.62 4.215c1.655.38 3.413.825 5.041 1.305 1.13.327 2.613.783 3.727 1.162 1.65.535 3.271 1.156 4.883 1.793l-.017.046c-16.264-6.084-33.945-7.504-51.147-5.995a148.777 148.777 0 0 0-30.53 5.95v-.001Z" fill="currentColor"/><path d="m101.89 1.17-.83-.835a.47.47 0 0 0-.667 0l-.83.834a.476.476 0 0 0 0 .671l.83.834a.47.47 0 0 0 .667 0l.83-.834a.476.476 0 0 0 0-.67ZM85.245 2.127l-.83-.834a.47.47 0 0 0-.667 0l-.83.834a.476.476 0 0 0 0 .671l.83.834a.47.47 0 0 0 .668 0l.83-.834a.476.476 0 0 0 0-.67ZM117.58 2.127l-.83-.835a.47.47 0 0 0-.667 0l-.83.835a.476.476 0 0 0 0 .67l.83.834a.47.47 0 0 0 .667 0l.83-.834a.476.476 0 0 0 0-.67ZM132.112 4.874l-.83-.835a.47.47 0 0 0-.667 0l-.83.835a.476.476 0 0 0 0 .67l.83.834a.47.47 0 0 0 .667 0l.83-.834a.476.476 0 0 0 0-.67ZM71.47 4.875l-.83-.835a.47.47 0 0 0-.668 0l-.83.835a.476.476 0 0 0 0 .67l.83.834a.47.47 0 0 0 .668 0l.83-.834a.476.476 0 0 0 0-.67Z" fill="currentColor"/></symbol><symbol fill="none" viewBox="0 0 49 49" id="logo-placeholder" xmlns="http://www.w3.org/2000/svg"><path fill-rule="evenodd" clip-rule="evenodd" d="M0 24.375C0 10.912 10.912 0 24.375 0 37.837 0 48.75 10.912 48.75 24.375c0 13.462-10.913 24.375-24.375 24.375C10.912 48.75 0 37.837 0 24.375Zm28.445-9.793c-2.225-1.942-5.915-1.942-8.137 0a1.875 1.875 0 0 1-2.47-2.822c3.634-3.18 9.44-3.18 13.075 0 3.782 3.31 3.782 8.795 0 12.105a9.377 9.377 0 0 1-2.093 1.38c-1.69.82-2.57 1.935-2.57 2.88V30a1.875 1.875 0 1 1-3.75 0v-1.875c0-3.198 2.65-5.267 4.688-6.255a5.7 5.7 0 0 0 1.257-.828c2.075-1.817 2.075-4.642 0-6.46Zm-4.07 24.793a1.875 1.875 0 1 0 0-3.75 1.875 1.875 0 0 0 0 3.75Z" fill="currentColor"/></symbol><symbol fill="none" viewBox="0 0 32 32" id="purchase" xmlns="http://www.w3.org/2000/svg"><path d="M12 6.667H9.333a2.667 2.667 0 0 0-2.666 2.666v16A2.667 2.667 0 0 0 9.333 28h13.334a2.667 2.667 0 0 0 2.666-2.667v-16a2.667 2.667 0 0 0-2.666-2.666H20" stroke="#000" stroke-width="1.333" stroke-linecap="round" stroke-linejoin="round"/><path d="M12 6.667A2.667 2.667 0 0 1 14.667 4h2.666a2.667 2.667 0 1 1 0 5.333h-2.666A2.667 2.667 0 0 1 12 6.667ZM18.667 14.667h-3.334a2 2 0 0 0 0 4h1.334a2 2 0 0 1 0 4h-3.334M16 22.667V24m0-10.667v1.334" stroke="#000" stroke-width="1.333" stroke-linecap="round" stroke-linejoin="round"/></symbol><symbol fill="none" viewBox="0 0 429 173" id="shadow" xmlns="http://www.w3.org/2000/svg"><g opacity=".8" filter="url(#ata)"><ellipse cx="214.216" cy="86.037" rx="164.438" ry="35" transform="rotate(3.049 214.216 86.037)" fill="currentColor"/></g><g filter="url(#atb)"><ellipse cx="219.344" cy="86.316" rx="79.925" ry="25.999" transform="rotate(3.049 219.344 86.316)" fill="currentColor"/></g><defs><filter id="ata" x="0" y="0" width="428.432" height="172.074" filterUnits="userSpaceOnUse" color-interpolation-filters="sRGB"><feFlood flood-opacity="0" result="BackgroundImageFix"/><feBlend in="SourceGraphic" in2="BackgroundImageFix" result="shape"/><feGaussianBlur stdDeviation="25" result="effect1_foregroundBlur_2094_7"/></filter><filter id="atb" x="89.52" y="10.004" width="259.649" height="152.624" filterUnits="userSpaceOnUse" color-interpolation-filters="sRGB"><feFlood flood-opacity="0" result="BackgroundImageFix"/><feBlend in="SourceGraphic" in2="BackgroundImageFix" result="shape"/><feGaussianBlur stdDeviation="25" result="effect1_foregroundBlur_2094_7"/></filter></defs></symbol><symbol fill="none" viewBox="0 0 24 24" id="telegram" xmlns="http://www.w3.org/2000/svg"><path fill-rule="evenodd" clip-rule="evenodd" d="M19.777 4.43a1.5 1.5 0 0 1 2.062 1.626L19.57 19.813c-.22 1.327-1.676 2.088-2.893 1.427-1.018-.553-2.53-1.405-3.89-2.294-.68-.445-2.763-1.87-2.507-2.884C10.5 15.195 14 11.937 16 10c.785-.761.427-1.2-.5-.5-2.302 1.738-5.998 4.381-7.22 5.125-1.078.656-1.64.768-2.312.656-1.226-.204-2.363-.52-3.291-.905-1.254-.52-1.193-2.244-.001-2.746l17.1-7.2Z" fill="#1098F7"/></symbol><symbol fill="none" viewBox="0 0 24 24" id="telegram-link" xmlns="http://www.w3.org/2000/svg"><path d="M12 0C5.376 0 0 5.376 0 12s5.376 12 12 12 12-5.376 12-12S18.624 0 12 0Zm5.568 8.16c-.18 1.896-.96 6.504-1.356 8.628-.168.9-.504 1.2-.816 1.236-.696.06-1.224-.456-1.896-.9-1.056-.696-1.656-1.128-2.676-1.8-1.188-.78-.42-1.212.264-1.908.18-.18 3.252-2.976 3.312-3.228a.241.241 0 0 0-.06-.216c-.072-.06-.168-.036-.252-.024-.108.024-1.788 1.14-5.064 3.348-.48.324-.912.492-1.296.48-.432-.012-1.248-.24-1.86-.444-.756-.24-1.344-.372-1.296-.792.024-.216.324-.432.888-.66 3.504-1.524 5.832-2.532 6.996-3.012 3.336-1.392 4.02-1.632 4.476-1.632.096 0 .324.024.468.144.12.096.156.228.168.324-.012.072.012.288 0 .456Z" fill="currentColor"/></symbol><symbol fill="none" viewBox="0 0 20 19" id="twitter" xmlns="http://www.w3.org/2000/svg"><path d="M15.75 0h3.067l-6.7 7.677L20 18.126h-6.171L8.99 11.79l-5.528 6.336H.393L7.559 9.91 0 .001h6.329l4.365 5.79L15.75 0Zm-1.079 16.286h1.7L5.4 1.744H3.577l11.094 14.542Z" fill="currentColor"/></symbol><symbol fill="none" viewBox="0 0 160 36" id="uniswap" xmlns="http://www.w3.org/2000/svg"><path fill-rule="evenodd" clip-rule="evenodd" d="M.62.785c3.992 4.9 8.375 11.055 9.084 12.05l.082.114c.378.529.69.921.927 1.22.526.662.682.858.368 1.038a1.513 1.513 0 0 1-.775.194c-.295 0-.627-.144-.869-.376-.17-.164-1.34-1.881-2.933-4.38-1.218-1.911-2.238-3.497-2.266-3.524-.064-.061-.063-.06 2.142 3.93 1.385 2.505 2.332 4.356 2.332 4.475 0 .24-.065.367-.359.699-.49.553-.709 1.174-.867 2.459-.177 1.44-.676 2.458-2.057 4.2-.809 1.02-.94 1.206-1.145 1.617-.257.518-.328.808-.356 1.461-.03.691.029 1.138.237 1.798.183.578.374.96.862 1.724.42.66.663 1.15.663 1.34 0 .153.029.153.68.005 1.562-.357 2.829-.983 3.542-1.752.44-.475.544-.738.548-1.39.002-.425-.013-.515-.127-.76-.185-.399-.523-.73-1.267-1.245-.975-.674-1.391-1.216-1.506-1.962-.095-.613.015-1.045.554-2.188.558-1.183.697-1.687.79-2.88.06-.77.144-1.074.363-1.318.229-.254.434-.34 1-.418.92-.128 1.507-.369 1.99-.818.418-.39.593-.765.62-1.33l.02-.43-.234-.275C11.817 13.065.053 0 0 0c-.01 0 .268.353.62.785Zm5.545 25.96a.763.763 0 0 0-.23-1c-.303-.203-.773-.107-.773.158 0 .08.044.14.144.192.168.087.18.185.048.386-.134.203-.123.382.03.503.248.196.598.088.781-.24Zm5.76-18.69c-.377-.06-.393-.067-.215-.095.34-.053 1.145.02 1.7.153 1.293.31 2.47 1.107 3.727 2.522l.334.376.477-.078c2.012-.327 4.06-.067 5.771.733.471.22 1.214.658 1.307.77.03.036.084.267.12.513.127.853.064 1.506-.194 1.994-.14.266-.148.35-.054.577a.55.55 0 0 0 .493.315c.426 0 .884-.696 1.096-1.663l.084-.385.167.191c.916 1.05 1.635 2.48 1.759 3.499l.032.265-.154-.241c-.265-.415-.531-.698-.872-.926-.614-.411-1.264-.551-2.985-.643-1.554-.083-2.433-.217-3.305-.505-1.484-.489-2.232-1.14-3.995-3.478-.783-1.039-1.267-1.614-1.748-2.076-1.094-1.052-2.168-1.603-3.544-1.819Zm13.451 2.318c.04-.696.133-1.155.32-1.574.074-.166.144-.302.155-.302.01 0-.022.123-.072.272-.136.407-.159.963-.065 1.61.12.822.187.94 1.046 1.828.403.416.871.941 1.041 1.167l.309.41-.309-.293c-.378-.358-1.246-1.057-1.438-1.157-.128-.067-.148-.066-.227.014-.073.074-.088.184-.099.707-.015.815-.125 1.338-.39 1.86-.144.283-.166.223-.037-.096.097-.239.107-.343.107-1.132-.002-1.585-.188-1.965-1.28-2.618a11.895 11.895 0 0 0-1.011-.53c-.28-.126-.503-.236-.495-.244.031-.031 1.095.283 1.523.45.637.247.743.28.82.25.052-.02.077-.173.102-.622ZM11.521 9.157c-.103 1.223.372 2.86 1.138 3.927.595.827 1.516 1.47 2.196 1.532.446.04.58-.1.378-.398-.28-.413-.624-1.049-.715-1.321-.056-.17-.18-.67-.273-1.11-.32-1.508-.634-2.095-1.36-2.541a4.35 4.35 0 0 0-1.158-.436l-.174-.032-.032.379Zm12.925 11.87c-3.583-1.459-4.845-2.725-4.845-4.861 0-.315.01-.572.024-.572.013 0 .152.104.308.23.727.59 1.54.842 3.793 1.174 1.325.195 2.07.353 2.759.584 2.187.733 3.54 2.221 3.863 4.249.093.589.038 1.693-.114 2.275-.12.46-.486 1.289-.583 1.32-.027.01-.053-.095-.06-.237-.037-.761-.418-1.502-1.056-2.057-.727-.631-1.703-1.134-4.089-2.105Zm-2.688-.16c.05.15.128.496.173.766.287 1.727-.61 3.122-2.354 3.663-.185.057-.912.201-1.616.32-1.426.24-2.062.41-2.701.72-.454.222-1.002.552-.97.585.01.01.114-.014.23-.055.806-.287 1.703-.435 3.066-.506a26.843 26.843 0 0 0 1.368-.1c1.214-.155 2.055-.529 2.71-1.202.364-.375.581-.724.756-1.216.111-.313.126-.429.127-.982 0-.564-.013-.667-.133-1.014-.157-.454-.343-.796-.578-1.063l-.17-.192.092.275Zm1.815 3.715c-.476-1.035-.585-2.034-.324-2.965.028-.1.072-.181.1-.181.026 0 .139.061.25.136.218.15.658.401 1.83 1.047 1.463.806 2.297 1.43 2.864 2.144.497.625.804 1.336.952 2.204.084.492.035 1.674-.09 2.17-.393 1.56-1.307 2.785-2.61 3.5-.192.105-.363.191-.382.192-.018 0 .051-.179.155-.398.438-.927.488-1.828.157-2.832-.203-.614-.617-1.364-1.453-2.632-.972-1.473-1.21-1.865-1.449-2.385Zm-8.967 3.394c-1.507.248-3.161 1.054-4.491 2.19l-.396.337.348.055c1.816.287 2.304.541 3.564 1.853.724.754.969.922 1.57 1.078.883.227 1.753-.191 2.052-.988.133-.355.115-.945-.038-1.24-.364-.705-1.424-.933-1.937-.417-.427.43-.303 1.078.229 1.189.121.026.118.02-.031-.048-.233-.106-.334-.254-.335-.488-.003-.55.62-.859 1.198-.595.424.194.592.447.592.89 0 .682-.574 1.196-1.242 1.112a1.82 1.82 0 0 1-1.028-.544c-.59-.674-.36-1.737.463-2.145.626-.31 1.459-.234 2.105.193.742.492 1.057.94 1.696 2.414.208.48.476 1.02.595 1.2.605.917 1.33 1.366 2.204 1.366.482 0 .845-.089 1.3-.319.34-.171.82-.496.785-.531-.01-.01-.15.034-.312.098-.954.376-1.924.35-2.487-.067-.355-.262-.64-.785-.788-1.438-.025-.113-.109-.613-.186-1.11-.196-1.262-.384-1.829-.822-2.48-.449-.665-1.311-1.224-2.275-1.474-.602-.155-1.684-.198-2.333-.09Zm-2.11-9.752c.13-.486.55-.95.982-1.084.276-.085.844-.03 1.111.107.518.266.894.873.813 1.31-.1.534-.956.962-1.941.969-.503.003-.689-.065-.881-.325-.119-.16-.164-.68-.085-.977Zm1.961-.787c.258.16.325.395.173.614-.105.15-.429.293-.665.293-.356 0-.744-.256-.744-.49 0-.47.744-.72 1.236-.417Zm77.203 1.345c-.804-2.675.522-4.894 3.349-5.607.81-.205 4.482-.113 5.111.128.231.089.332.427.334 1.124.002.548.061 1.214.133 1.48.108.403.045.482-.38.475-.384-.006-.616-.23-.94-.912-.517-1.088-1.144-1.435-2.605-1.439-1.865-.005-3.23 1.252-3.007 2.77.145.989 1.13 1.96 3.344 3.298 2.106 1.271 3.335 2.317 3.825 3.253 1.31 2.505.191 5.186-2.726 6.536-1.498.693-4.008.765-5.773.165l-1.13-.384V27.86c0-1.637.039-1.808.411-1.808.312 0 .447.206.556.852.273 1.608 1.493 2.583 3.23 2.583 1.703 0 2.893-.93 3.349-2.619.194-.719.16-.984-.225-1.777-.462-.952-1.256-1.583-3.955-3.141-1.498-.866-2.557-2.022-2.901-3.169Zm-52.908-4.54c-.369 0-.512-.12-.512-.429 0-.409.143-.43 3.03-.43 2.678 0 3.02.041 2.96.349-.04.192-.41.457-.824.59l-.753.243-.065 5.476c-.043 3.653.018 5.76.182 6.334.489 1.704 1.98 2.684 4.082 2.684 1.465 0 2.32-.343 3.395-1.36 1.155-1.094 1.34-2.134 1.336-7.537-.004-5.329-.096-5.768-1.24-5.879-.52-.05-.694-.172-.694-.483 0-.388.171-.416 2.583-.416 2.44 0 2.583.024 2.583.43 0 .264-.145.43-.377.432-.997.009-1.015.104-1.15 5.947-.138 6.069-.268 6.787-1.497 8.274-.354.428-1.2 1.051-1.877 1.384-1.106.541-1.458.603-3.387.6-1.778-.004-2.34-.09-3.229-.495-1.298-.592-2.142-1.357-2.764-2.508-.434-.803-.472-1.237-.572-6.678-.115-6.227-.171-6.527-1.21-6.527Zm20.143 0c-.492 0-.636-.096-.636-.429 0-.402.138-.428 2.207-.411l2.206.017 1.056 1.217c.58.67 2.472 2.763 4.204 4.653 1.732 1.89 3.72 4.088 4.418 4.885.698.797 1.356 1.45 1.46 1.45.108 0 .162-2.253.124-5.173l-.068-5.172-.604-.518c-.332-.285-.84-.518-1.13-.518-.385 0-.526-.117-.526-.436 0-.419.11-.433 2.96-.375 2.423.049 2.96.116 2.96.373 0 .182-.3.374-.72.46-.396.08-.832.258-.969.395-.177.176-.267 2.456-.31 7.86l-.062 7.613h-.624c-.537 0-1.177-.605-4.595-4.349-2.184-2.391-4.733-5.234-5.664-6.316-.932-1.082-1.767-1.976-1.856-1.986-.25-.028-.19 9.643.066 10.56.2.716.336.84 1.183 1.065.682.182.958.367.958.64 0 .352-.26.386-3.014.386-2.803 0-3.014-.028-3.014-.403 0-.274.203-.443.636-.53 1.315-.262 1.402-.678 1.476-7.04.04-3.563-.02-6.055-.16-6.578-.248-.917-.866-1.34-1.962-1.34Zm22.572 0c-.461 0-.605-.101-.605-.429 0-.41.144-.43 3.23-.43 3.084 0 3.228.02 3.228.43 0 .315-.144.43-.538.43-.296 0-.736.197-.978.438-.426.425-.437.637-.376 7.21.059 6.418.084 6.79.48 7.078.23.168.641.305.915.305.353 0 .497.123.497.43 0 .41-.144.428-3.229.428-3.012 0-3.229-.027-3.229-.401 0-.303.211-.436.853-.539 1.274-.203 1.339-.619 1.26-8.042-.064-5.944-.091-6.315-.486-6.603-.23-.167-.69-.304-1.022-.304Zm22.524 0c-.295 0-.519-.163-.589-.429-.108-.415-.006-.43 3.097-.43 3.065 0 3.208.02 3.208.43 0 .33-.143.43-.619.43-1.355 0-1.325.245.726 5.861 1.044 2.858 2.058 5.574 2.253 6.034l.354.837 1.644-4.38c1.935-5.155 2.187-6.109 1.858-7.05-.229-.655-1.12-1.302-1.792-1.302-.19 0-.334-.185-.334-.43 0-.41.144-.43 3.337-.43s3.337.02 3.337.43c0 .306-.144.43-.497.43-.905 0-1.304.481-1.174 1.417.133.962 3.836 11.31 3.991 11.156.253-.252 4.353-11.392 4.353-11.826 0-.52-.365-.747-1.202-.747-.377 0-.52-.119-.52-.43 0-.405.143-.43 2.583-.43 2.191 0 2.583.052 2.583.334 0 .184-.268.427-.596.54-.738.258-.924.55-1.849 2.923l-2.828 7.245c-1.148 2.944-2.137 5.48-2.197 5.637-.061.157-.417.285-.792.285h-.681l-1.546-4.026c-.851-2.214-1.856-4.837-2.233-5.83-.647-1.7-.701-1.773-.945-1.288-.142.284-1.163 2.912-2.27 5.84l-2.013 5.325-.751-.064-.751-.064-2.864-7.499c-1.6-4.19-3.072-7.72-3.335-7.998-.259-.275-.685-.5-.946-.5Zm43.042.092c-.036-.082-.036-.375-.036-.375s-.008-.105.036-.162c.044-.056.06-.058.218-.073h.002a60.927 60.927 0 0 1 3.016-.204h.005c1.071-.049 2.987-.114 4.304-.048 2.528.126 4.325 1.35 4.938 3.37.613 2.021.289 3.918-.546 5.126-.835 1.207-2.239 2.247-4.573 2.179-1.927-.056-2.443-.417-2.855-.705-.087-.061-.169-.12-.259-.17v2.577c.02 1.758.035 2.602.171 2.914.183.421.597.68 1.404.879 0 0 .365.085.459.177.094.091.094.294.094.294s.019.19-.056.286c-.076.097-.222.078-.222.078l-3.573-.03-2.154-.005s-.226.043-.311-.047c-.085-.092-.077-.282-.077-.282s.019-.204.118-.296c.099-.091.466-.194.466-.194.831-.233 1.192-.48 1.38-.945.151-.376.152-1.071.151-6.748-.002-5.384-.009-6.389-.133-6.677-.182-.428-.639-.541-1.29-.702-.129-.033-.266-.066-.409-.105 0 0-.232-.03-.268-.112Zm10.403 4.393c0 .883-.015 2.265-.954 3.148-.939.884-2.787 1.126-4.042.88a2.602 2.602 0 0 1-.796-.29l-.018-.009-.321-.169-.018-3.102c-.012-1.943.008-3.21.054-3.39.042-1.025 1.552-1.153 2.29-1.115 3.156 0 3.713 2.663 3.805 4.047Zm-20.315-5.223s-.154.06-.388.148l-.843.436-.607 1.517c-.334.834-.944 2.365-1.357 3.403a970.913 970.913 0 0 1-1.769 4.427c-.154.381-.617 1.542-1.031 2.58-.413 1.037-.826 2.024-.917 2.193l-.049.09c-.231.435-.632 1.19-1.341 1.305 0 0-.389.038-.534.18-.144.143-.13.26-.13.26v.18s.013.087.095.13c.082.044.192.046.192.046l2.593-.03h2.679s.19.023.263-.038c.073-.06.093-.15.093-.15v-.19s-.037-.205-.143-.285c-.106-.08-.504-.135-.504-.135-1.073-.141-1.257-.953-1.125-1.684.065-.358.496-1.686.982-3.022l.168-.462 2.807-.021c1.544-.012 2.878-.004 2.963.017.122.031.292.378.793 1.613.76 1.872.82 2.1.652 2.45l-.033.07c-.158.339-.464.997-1.235 1.064 0 0-.409.014-.511.137-.102.122-.08.263-.08.263v.188s.027.11.08.153c.052.044.141.032.141.032l2.549-.018h3.582s.141.015.179-.039c.038-.054.046-.118.046-.118v-.249s-.016-.132-.085-.205c-.068-.073-.533-.15-.533-.15-.593-.096-.889-.586-1.109-.951-.056-.093-.107-.178-.157-.247-.102-.139-.467-.901-.752-1.635l-1.43-3.682-1.555-4.003-1.494-3.85-.208-.535v-.001c-.314-.81-.44-1.137-.475-1.182-.113-.143-.462 0-.462 0Zm-.167 4.932c-.113-.275-.312-.769-.442-1.097-.237-.596-.326-.734-.4-.61-.021.035-.17.443-.33.905a597.062 597.062 0 0 1-1.604 4.596c-.059.16-.108.324-.108.365 0 .048.845.076 2.293.076 1.261 0 2.293-.016 2.293-.035 0-.02-.112-.305-.25-.635s-.474-1.155-.748-1.833a497.48 497.48 0 0 0-.704-1.732Z" fill="currentColor"/></symbol><symbol fill="none" viewBox="0 0 22 22" id="x-link" xmlns="http://www.w3.org/2000/svg"><path fill-rule="evenodd" clip-rule="evenodd" d="M4 0a4 4 0 0 0-4 4v14a4 4 0 0 0 4 4h14a4 4 0 0 0 4-4V4a4 4 0 0 0-4-4H4Zm-.334 3.5a.75.75 0 0 0-.338 1.154l5.614 7.45-5.915 6.345-.044.051H5.03l4.83-5.179 3.712 4.928a.75.75 0 0 0 .337.251h4.422a.749.749 0 0 0 .336-1.154l-5.614-7.45L19.017 3.5h-2.05l-4.83 5.18-3.714-4.928a.75.75 0 0 0-.337-.252h-4.42Zm10.88 13.548L5.431 4.952H7.45l9.114 12.095-2.018.001Z" fill="currentColor"/></symbol><symbol fill="none" viewBox="0 0 24 24" id="youtube" xmlns="http://www.w3.org/2000/svg"><path fill-rule="evenodd" clip-rule="evenodd" d="M12 4c.855 0 1.732.022 2.582.058l1.004.048.961.057.9.061.822.064a3.8 3.8 0 0 1 3.494 3.423l.04.425.075.91c.07.943.122 1.971.122 2.954 0 .983-.052 2.011-.122 2.954l-.075.91-.04.425a3.8 3.8 0 0 1-3.495 3.423l-.82.063-.9.062-.962.057-1.004.048c-.86.037-1.721.057-2.582.058a61.923 61.923 0 0 1-2.582-.058l-1.004-.048-.961-.057-.9-.062-.822-.063a3.8 3.8 0 0 1-3.494-3.423l-.04-.425-.075-.91A41 41 0 0 1 2 12c0-.983.052-2.011.122-2.954l.075-.91.04-.425A3.8 3.8 0 0 1 5.73 4.288l.821-.064.9-.061.962-.057 1.004-.048c.86-.037 1.722-.057 2.583-.058Zm-2 5.575v4.85c0 .462.5.75.9.52l4.2-2.425a.6.6 0 0 0 0-1.04l-4.2-2.424a.6.6 0 0 0-.9.52v-.001Z" fill="#FF1931"/></symbol><symbol fill="none" viewBox="0 0 24 24" id="youtube-link" xmlns="http://www.w3.org/2000/svg"><path d="M12 0C5.376 0 0 5.376 0 12s5.376 12 12 12 12-5.376 12-12S18.624 0 12 0Zm0 19.104A7.103 7.103 0 0 1 4.896 12 7.103 7.103 0 0 1 12 4.896 7.103 7.103 0 0 1 19.104 12 7.103 7.103 0 0 1 12 19.104Zm0-13.332A6.238 6.238 0 0 0 5.772 12 6.238 6.238 0 0 0 12 18.228 6.238 6.238 0 0 0 18.228 12 6.238 6.238 0 0 0 12 5.772ZM9.684 15.54V8.46L15.816 12l-6.132 3.54Z" fill="currentColor"/></symbol></svg>