<svg width="121" height="81" fill="none" xmlns="http://www.w3.org/2000/svg"><path d="m1.476 76.79 9.102-13.858 4.178-2.503 4.626 1.106 5.372 2.695h5.073l5.67-4.897 4.03-11.071 3.282-7.392 5.52-2.189 3.88.852 4.179 4.684 4.327 4.896h5.52l4.179-3.832 3.133-5.748 1.493-5.11 2.238-6.394 3.581-2.722h3.581l3.73 4.432 3.283 3.62h4.836l2.924-3.62 3.432-6.813 4.178-7.238V66.87c0 7.713-6.253 13.966-13.966 13.966H5.52a4.045 4.045 0 0 1-4.045-4.045Z" fill="url(#a)" fill-opacity=".1"/><path d="m1.476 75.291 5.669-10.049c2.82-5 9.366-6.432 14.017-3.065 5.356 3.878 12.938 1.319 14.848-5.012l3.664-12.14c2.227-7.38 12.29-8.327 15.855-1.493 3.01 6.075 11.582 6.33 14.947.444l1.827-3.194c.328-.574.601-1.179.814-1.805l3.108-9.12c1.803-5.288 9.08-5.805 11.611-.823 2.322 4.569 8.832 4.617 11.22.082l7.074-13.428" stroke="#01FF87" stroke-width="2.167" stroke-linecap="square" stroke-linejoin="round"/><g filter="url(#b)"><circle cx="105.763" cy="14.629" r="3.793" fill="#01FF87"/></g><defs><linearGradient id="a" x1="51.868" y1="63.621" x2="55.941" y2="80.329" gradientUnits="userSpaceOnUse"><stop stop-color="#01FF87"/><stop offset="1" stop-color="#01FF87" stop-opacity=".23"/></linearGradient><filter id="b" x="91.135" y="0" width="29.257" height="29.257" filterUnits="userSpaceOnUse" color-interpolation-filters="sRGB"><feFlood flood-opacity="0" result="BackgroundImageFix"/><feColorMatrix in="SourceAlpha" values="0 0 0 0 0 0 0 0 0 0 0 0 0 0 0 0 0 0 127 0" result="hardAlpha"/><feOffset/><feGaussianBlur stdDeviation="5.418"/><feComposite in2="hardAlpha" operator="out"/><feColorMatrix values="0 0 0 0 0.207843 0 0 0 0 0.937255 0 0 0 0 0.490196 0 0 0 1 0"/><feBlend in2="BackgroundImageFix" result="effect1_dropShadow_106_369"/><feBlend in="SourceGraphic" in2="effect1_dropShadow_106_369" result="shape"/></filter></defs></svg>