<svg width="113" height="36" fill="none" xmlns="http://www.w3.org/2000/svg"><path fill-rule="evenodd" clip-rule="evenodd" d="M30.23 6.48a3.246 3.246 0 0 0 3.238-3.241A3.245 3.245 0 0 0 30.23 0a3.247 3.247 0 0 0-3.238 3.241 3.246 3.246 0 0 0 3.238 3.242V6.48Zm-7.209 4.883a6.642 6.642 0 0 1-1.669 4.666v.015c.892.605 3.108 2.26 3.108 5.443 0 3.642-2.977 6.609-6.634 6.609H0V5.056h16.244c3.568 0 6.605 2.765 6.777 6.307Zm-5.77.458c0-1.613-1.337-2.333-2.862-2.333H5.755v4.593h8.632c1.496 0 2.848-.663 2.861-2.26h.003ZM5.726 18.518l.029 5.142v-.015h10.07c1.483 0 2.849-.964 2.878-2.563 0-1.613-1.353-2.564-2.878-2.564H5.723h.003ZM27.353 7.92h5.754v20.163h-5.754V7.92Zm30.918 9.462c0-5.27-3.597-8.627-7.913-9.331a12.289 12.289 0 0 0-1.669-.131c-1.854 0-4.057.346-6.243 1.44V7.92H36.69v20.163h5.755V17.97c0-4.045 2.359-5.5 5.035-5.5 2.877 0 5.035 1.903 5.035 5.503v10.109h5.755v-10.7Zm41.478-5.04C95.26 7.43 89.532 6.48 86.34 6.48v5.977c2.36 0 6.618.736 9.741 4.81-3.12 4.076-7.381 4.81-9.74 4.81v5.974c3.196 0 8.922-.95 13.41-5.862 4.646 4.94 9.94 5.862 13.252 5.862v-5.977c-2.258 0-6.145-.576-9.626-4.81 3.481-4.233 7.381-4.81 9.626-4.81V6.48c-3.309 0-8.604.922-13.252 5.862h-.002ZM77.693 9.405V7.92h5.739v17.702c0 3.225-1.656 10.38-11.81 10.38-5.093 0-9.294-2.1-11.209-5.024l4.316-2.895c.863 1.18 3.136 2.88 6.474 2.88 5.266 0 6.474-3.627 6.474-5.341-1.583 1.123-3.798 1.74-6.647 1.74-5.51 0-10.604-4.505-10.604-10.265 0-5.76 5.138-9.174 10.617-9.174 3.322 0 5.813 1.08 6.647 1.484l.003-.002Zm-11.51 7.993c0 2.72 2.574 4.925 5.755 4.925 3.18 0 5.755-2.205 5.755-4.925 0-2.72-2.577-4.928-5.755-4.928s-5.755 2.205-5.755 4.928Z" fill="#000"/></svg>