<svg width="157" height="36" fill="none" xmlns="http://www.w3.org/2000/svg"><path d="M26.332 2.923C23.962.967 20.716 0 16.572 0H6.262v1.45H16.39c3.521 0 6.698.714 8.655 2.417C27 5.57 28.45 8.057 28.45 11.141c0 2.992-1.289 5.179-3.291 6.859-2.003 1.68-5.64 2.417-9.254 2.417H4.281v1.45h11.716c4.35 0 7.758-.944 10.22-2.831 2.44-1.888 3.683-4.558 3.683-7.987 0-3.5-1.197-6.192-3.567-8.126Z" fill="#1C1E1D"/><path d="M25.458 4.995c-1.473-1.128-3.154-2.026-7.941-2.026H9.552v1.404s3.568-.046 7.78 0c4.075.046 5.57.507 6.952 1.52 1.75 1.289 2.854 2.9 2.854 5.132 0 2.164-1.105 3.683-2.877 4.995-1.796 1.335-4.558 1.335-5.685 1.381H12.66v1.405s2.716.046 4.42 0c3.866-.093 6.168-.323 8.309-1.91 2.002-1.497 3.061-3.454 3.061-5.94 0-3.268-1.657-4.902-2.992-5.961Z" fill="#1C1E1D"/><path d="M24.744 6.86c-1.105-.691-2.071-1.152-6.652-1.152h-5.731v.921h5.57c4.051 0 5.57.714 6.054 1.013.92.552 2.117 1.473 2.117 3.315 0 1.173-.69 2.67-1.726 3.245-.944.53-2.67 1.013-5.686 1.013H0v.92h18.737c3.66 0 4.902-.414 6.191-1.127 1.29-.714 2.164-2.187 2.164-4.051 0-2.118-1.174-3.361-2.348-4.098Z" fill="#1C1E1D"/><path d="M28.381 17.056c-2.37-1.956-5.616-2.923-9.76-2.923h-6.905v1.45h6.698c3.522 0 6.699.737 8.655 2.417 1.957 1.68 3.43 4.19 3.43 7.273 0 2.993-1.266 5.18-3.292 6.86-2.025 1.68-5.64 2.417-9.253 2.417H6.33V36h11.716c4.35 0 7.757-.944 10.22-2.831 2.463-1.888 3.683-4.558 3.683-7.988-.023-3.475-1.197-6.168-3.568-8.125Z" fill="#1C1E1D"/><path d="M27.506 19.128c-1.473-1.105-3.153-2.026-7.94-2.026H8.745v1.404s6.423-.046 10.635 0c4.074.046 5.57.506 6.951 1.52 1.75 1.288 2.855 2.9 2.855 5.132 0 2.164-1.105 3.683-2.878 4.995-1.795 1.335-4.557 1.335-5.685 1.381H14.71v1.404s2.739.046 4.419 0c3.867-.092 6.169-.322 8.31-1.91 2.002-1.496 3.06-3.453 3.06-5.939 0-3.245-1.634-4.902-2.992-5.961Z" fill="#1C1E1D"/><path d="M11.049 23.915h10.15v-.782H11.05v.782Zm4.189 2.74h5.893v-.668h-5.893v.668Zm-8.908-2.74h2.992v-.782H6.33v.782ZM4.442 26.7h9.139v-.782H4.442v.783ZM6.698 6.56h3.568v-.644H6.698v.644Zm-2.463 5.248h8.126v-.736H4.235v.736Zm.207 21.038h8.586v-.92H4.442v.92Zm-2.117 3.062h2.14V34.55h-2.14v1.358Zm5.34-26.401h13.489V8.77H7.665v.737Zm6.745 2.301h6.49v-.736h-6.49v.736Z" fill="#1C1E1D"/><path d="M26.793 21.13c-1.105-.667-2.072-1.128-6.652-1.128h-7.274v.898h7.136c4.05 0 5.593.69 6.053.967.898.53 2.118 1.404 2.118 3.2 0 1.15-.69 2.577-1.726 3.13-.944.506-2.67.967-5.686.967H2.05v.897h18.736c3.66 0 4.903-.391 6.192-1.082 1.289-.69 2.14-2.094 2.14-3.913.024-2.002-1.15-3.2-2.324-3.936Zm19.197-2.002v8.217h4.488c1.934 0 3.453-.368 4.512-1.105a3.537 3.537 0 0 0 1.61-3.06c0-2.693-2.279-4.051-6.813-4.051H45.99Zm0-9.783v7.366h3.383c1.819 0 3.223-.345 4.259-1.059a3.407 3.407 0 0 0 1.565-2.992c0-2.21-1.796-3.338-5.41-3.338l-3.797.023Zm-3.315 20.417V6.928h8.033c2.44 0 4.374.484 5.8 1.45 1.428.967 2.142 2.233 2.142 3.775a4.863 4.863 0 0 1-1.29 3.384c-.874.967-2.048 1.634-3.567 2.048v.07c1.91.184 3.43.76 4.557 1.749a4.772 4.772 0 0 1 1.704 3.82c0 1.957-.875 3.523-2.601 4.743-1.727 1.22-3.913 1.818-6.56 1.818h-8.218v-.023Zm21.062 0h3.222V13.465h-3.222v16.297ZM65.37 9.3a2.27 2.27 0 0 1-1.473-.483 1.403 1.403 0 0 1-.599-1.197c0-.484.23-.944.599-1.22a2.27 2.27 0 0 1 1.473-.484 2.29 2.29 0 0 1 1.496.484 1.5 1.5 0 0 1 .345 2.071 1.233 1.233 0 0 1-.345.346 2.17 2.17 0 0 1-1.496.483Zm15.837 20.301c-.76.346-1.772.507-3.015.507-3.522 0-5.294-1.589-5.294-4.788v-9.645h-3.453v-2.232h3.453V9.46l3.222-.852v4.834h5.064v2.232H76.12v9.184c0 1.082.23 1.865.69 2.348.461.484 1.22.69 2.28.69a3.719 3.719 0 0 0 2.094-.551l.023 2.255Zm29.302.161h-3.015V15.675c.023-1.358.092-2.74.253-4.097h-.069c-.184.69-.461 1.38-.783 2.025L98.033 29.74h-1.496l-8.839-16.02a10.121 10.121 0 0 1-.782-2.164h-.07c.116 1.358.162 2.739.139 4.12V29.74H84.06V8.747h4.028l7.965 14.639c.46.806.874 1.657 1.197 2.532h.115c.53-1.151.944-2.003 1.243-2.578l8.125-14.593h3.798v21.015m16.367-8.263-4.857.552c-1.496.161-2.624.46-3.384.898-.759.437-1.15 1.197-1.15 2.279 0 .782.391 1.519 1.058 1.956.691.507 1.635.76 2.809.76 1.611 0 2.923-.46 3.959-1.358a4.408 4.408 0 0 0 1.565-3.453v-1.634Zm3.222 8.263h-3.222v-2.555h-.069c-1.404 1.957-3.476 2.924-6.192 2.924-2.003 0-3.568-.438-4.719-1.29-1.105-.782-1.726-2.071-1.703-3.43 0-3.038 2.21-4.81 6.652-5.316l6.031-.69c0-2.763-1.381-4.144-4.143-4.144a11.309 11.309 0 0 0-6.56 2.003v-2.67c1.979-1.013 4.258-1.52 6.836-1.52 4.742 0 7.089 2.026 7.089 6.077v10.611Zm14.962-13.672c-.576-.346-1.381-.53-2.44-.53a4.356 4.356 0 0 0-3.453 1.588c-.92 1.06-1.381 2.486-1.381 4.305v8.31h-3.222V13.465h3.222v3.36h.069a5.8 5.8 0 0 1 2.118-2.693c.921-.644 2.025-.967 3.176-.967a6.105 6.105 0 0 1 1.934.23l-.023 2.694Z" fill="#1C1E1D"/><path d="M156.315 29.601c-.76.346-1.773.507-3.016.507-3.521 0-5.294-1.589-5.294-4.788v-9.645h-3.453v-2.232h3.453V9.46l3.223-.852v4.834h5.064v2.232h-5.064v9.184c0 1.082.23 1.865.69 2.348.461.484 1.22.69 2.279.69a3.72 3.72 0 0 0 2.095-.551l.023 2.255Z" fill="#1C1E1D"/></svg>